<?xml version="1.0" encoding="UTF-8" standalone="no"?>
<svg
   xmlns:dc="http://purl.org/dc/elements/1.1/"
   xmlns:cc="http://creativecommons.org/ns#"
   xmlns:rdf="http://www.w3.org/1999/02/22-rdf-syntax-ns#"
   xmlns:svg="http://www.w3.org/2000/svg"
   xmlns="http://www.w3.org/2000/svg"
   xmlns:xlink="http://www.w3.org/1999/xlink"
   xmlns:sodipodi="http://sodipodi.sourceforge.net/DTD/sodipodi-0.dtd"
   xmlns:inkscape="http://www.inkscape.org/namespaces/inkscape"
   sodipodi:docname="yd-with-text.svg"
   inkscape:version="1.0 (4035a4fb49, 2020-05-01)"
   id="svg8"
   version="1.1"
   viewBox="0 0 254.84594 180.98068"
   height="180.98068mm"
   width="254.84595mm">
  <defs
     id="defs2">
    <rect
       id="rect859"
       height="59.247913"
       width="189.04836"
       y="234.49512"
       x="9.9236336" />
    <linearGradient
       id="linearGradient1088"
       inkscape:collect="always">
      <stop
         id="stop1084"
         offset="0"
         style="stop-color:#002c56;stop-opacity:1;" />
      <stop
         id="stop1086"
         offset="1"
         style="stop-color:#002c56;stop-opacity:0;" />
    </linearGradient>
    <linearGradient
       id="linearGradient1064"
       inkscape:collect="always">
      <stop
         id="stop1060"
         offset="0"
         style="stop-color:#0066cc;stop-opacity:1;" />
      <stop
         id="stop1062"
         offset="1"
         style="stop-color:#379bff;stop-opacity:1" />
    </linearGradient>
    <linearGradient
       id="linearGradient1048"
       inkscape:collect="always">
      <stop
         id="stop1044"
         offset="0"
         style="stop-color:#004d99;stop-opacity:1;" />
      <stop
         id="stop1046"
         offset="1"
         style="stop-color:#0097e8;stop-opacity:1" />
    </linearGradient>
    <pattern
       y="0"
       x="0"
       height="6"
       width="6"
       patternUnits="userSpaceOnUse"
       id="EMFhbasepattern" />
    <pattern
       y="0"
       x="0"
       height="6"
       width="6"
       patternUnits="userSpaceOnUse"
       id="EMFhbasepattern-3" />
    <pattern
       y="0"
       x="0"
       height="6"
       width="6"
       patternUnits="userSpaceOnUse"
       id="EMFhbasepattern-6" />
    <linearGradient
       gradientTransform="matrix(2.8030102,0,0,2.8030102,-689.31939,-1154.0228)"
       gradientUnits="userSpaceOnUse"
       y2="444.74203"
       x2="294.5134"
       y1="489.44547"
       x1="311.2168"
       id="linearGradient1050"
       xlink:href="#linearGradient1048"
       inkscape:collect="always" />
    <linearGradient
       gradientTransform="matrix(10.594054,0,0,10.594054,-689.31939,-1154.0228)"
       gradientUnits="userSpaceOnUse"
       y2="129.28047"
       x2="78.228813"
       y1="126.07781"
       x1="73.1856"
       id="linearGradient1066"
       xlink:href="#linearGradient1064"
       inkscape:collect="always" />
    <linearGradient
       gradientTransform="matrix(10.594054,0,0,10.594054,-689.31939,-1154.0228)"
       gradientUnits="userSpaceOnUse"
       y2="115.48579"
       x2="74.230637"
       y1="116.63645"
       x1="74.146378"
       id="linearGradient1082"
       xlink:href="#linearGradient1048"
       inkscape:collect="always" />
    <linearGradient
       gradientTransform="matrix(40.040516,0,0,40.040516,-2605.3016,-4361.6607)"
       gradientUnits="userSpaceOnUse"
       y2="117.54636"
       x2="76.960678"
       y1="116.01691"
       x1="73.789696"
       id="linearGradient1090"
       xlink:href="#linearGradient1088"
       inkscape:collect="always" />
    <clipPath
       id="clipPath940"
       clipPathUnits="userSpaceOnUse">
      <path
         id="path942"
         style="font-size:25.8865px;line-height:1.25;font-family:Sen;-inkscape-font-specification:'Sen, Normal';letter-spacing:0px;word-spacing:0px;fill:#004d99;fill-opacity:1;stroke-width:0.303477;stroke-miterlimit:4;stroke-dasharray:none"
         d="m 51.574645,231.82801 v 18.20147 h 2.073259 v -2.1487 c 0.438182,0.67412 1.027859,1.26432 1.769401,1.76991 0.758392,0.5056 1.61802,0.7581 2.578653,0.7581 1.095457,0 2.081075,-0.26943 2.957442,-0.80874 0.89322,-0.55615 1.601454,-1.32315 2.123903,-2.30063 0.5393,-0.97749 0.808736,-2.10655 0.808736,-3.38739 0,-1.39882 -0.269436,-2.60409 -0.808736,-3.61529 -0.522449,-1.01119 -1.247103,-1.78614 -2.174029,-2.32544 -0.910071,-0.55615 -1.9465,-0.83405 -3.10937,-0.83405 -0.724688,0 -1.466278,0.1768 -2.224672,0.53071 -0.74154,0.33707 -1.382027,0.80871 -1.921328,1.41542 v -7.25537 z m 106.554735,0 v 18.20147 h 2.07275 v -18.20147 z m 47.1718,0 v 7.25537 c -0.5393,-0.60671 -1.18825,-1.07835 -1.94665,-1.41542 -0.74154,-0.35391 -1.47466,-0.53071 -2.19935,-0.53071 -1.14601,0 -2.18244,0.2779 -3.10937,0.83405 -0.92692,0.5393 -1.66005,1.31425 -2.19935,2.32544 -0.52245,1.0112 -0.78341,2.21647 -0.78341,3.61529 0,1.28084 0.26096,2.4099 0.78341,3.38739 0.5393,0.97748 1.25549,1.74448 2.14871,2.30063 0.89322,0.53931 1.87936,0.80874 2.95796,0.80874 0.96063,0 1.81179,-0.2525 2.55333,-0.7581 0.75839,-0.50559 1.35654,-1.09579 1.79472,-1.76991 v 2.1487 h 2.07274 v -18.20147 z m -109.132871,0.8599 c -1.16287,0 -2.233173,0.0588 -3.21066,0.17673 -0.977485,0.11797 -1.980042,0.26988 -3.008085,0.45527 v 16.33078 c 1.028043,0.18539 2.0306,0.33678 3.008085,0.45476 0.977487,0.11797 2.04779,0.17725 3.21066,0.17725 1.90441,0 3.514098,-0.38799 4.828641,-1.16324 1.3314,-0.77525 2.34242,-1.82014 3.03341,-3.13469 0.70784,-1.3314 1.06195,-2.831 1.06195,-4.49947 0,-1.66846 -0.35411,-3.16011 -1.06195,-4.47466 -0.69099,-1.3314 -1.70201,-2.38477 -3.03341,-3.16002 -1.314543,-0.77524 -2.924231,-1.16271 -4.828641,-1.16271 z m -117.626933,0.40411 6.497277,10.31461 v 6.62285 h 2.452047 v -6.95151 l 6.4967612,-9.98595 h -2.7300659 l -5.0307003,7.98865 -4.954737,-7.98865 z m 50.35765,0.65732 c -0.42133,1.24713 -0.910422,2.3005 -1.466577,3.16001 -0.556154,0.84266 -1.246935,1.44927 -2.072742,1.82005 v 0.6072 h 2.426726 v 7.50806 c 0,1.0786 0.26995,1.94619 0.809253,2.60346 0.556154,0.64043 1.373442,0.96067 2.452046,0.96067 0.640421,0 1.145933,-0.0842 1.516704,-0.2527 0.387622,-0.15168 0.750207,-0.36235 1.087271,-0.632 v -1.69396 c -0.252797,0.15168 -0.548154,0.29513 -0.885217,0.42995 -0.337063,0.11797 -0.75841,0.17725 -1.264005,0.17725 -0.556156,0 -0.969033,-0.15191 -1.238684,-0.45527 -0.269651,-0.30336 -0.40411,-0.71623 -0.40411,-1.23868 v -7.40678 h 3.69073 v -1.94665 h -3.69073 v -3.64061 z m 67.269283,1.08727 c 1.365107,0 2.536513,0.29484 3.513998,0.8847 0.994343,0.57301 1.752863,1.36489 2.275313,2.37608 0.53931,0.99434 0.80874,2.12392 0.80874,3.38791 0,1.26399 -0.26943,2.40153 -0.80874,3.41271 -0.52245,0.99434 -1.28097,1.78623 -2.275313,2.37609 -0.977485,0.57301 -2.148891,0.85938 -3.513998,0.85938 -0.606716,0 -1.25567,-0.0249 -1.946653,-0.0754 -0.690981,-0.0506 -1.356358,-0.10984 -1.996779,-0.17725 v -12.79147 c 0.640421,-0.0842 1.305798,-0.143 1.996779,-0.17674 0.690983,-0.0505 1.339937,-0.076 1.946653,-0.076 z m -94.0660973,2.30064 c -1.28084238,0 -2.41837345,0.3033 -3.4127115,0.91002 -0.9943383,0.60671 -1.7777529,1.41553 -2.3507613,2.42672 -0.5561552,1.0112 -0.8345744,2.11486 -0.8345744,3.31143 0,1.19658 0.2784192,2.30075 0.8345744,3.31194 0.5730084,0.99434 1.356423,1.79469 2.3507613,2.40141 0.99433805,0.60672 2.13186912,0.91002 3.4127115,0.91002 1.2808425,0 2.4183735,-0.3033 3.4127117,-0.91002 0.9943382,-0.60672 1.7698011,-1.40707 2.3259563,-2.40141 0.5730084,-1.01119 0.8593789,-2.11536 0.8593789,-3.31194 0,-1.19657 -0.2863705,-2.30023 -0.8593789,-3.31143 -0.5561552,-1.01119 -1.3316181,-1.82001 -2.3259563,-2.42672 -0.9943382,-0.60672 -2.1318692,-0.91002 -3.4127117,-0.91002 z m 70.4044893,0 c -1.179724,0 -2.233089,0.3033 -3.160014,0.91002 -0.910072,0.60671 -1.626256,1.41553 -2.148705,2.42672 -0.522449,1.0112 -0.783932,2.11486 -0.783932,3.31143 0,1.19658 0.2779,2.30075 0.834057,3.31194 0.573008,0.99434 1.356939,1.79469 2.351278,2.40141 0.994339,0.60672 2.13187,0.91002 3.412712,0.91002 0.657273,0 1.280824,-0.10957 1.870686,-0.32866 0.606714,-0.20224 1.137632,-0.45474 1.592668,-0.7581 0.471889,-0.3202 0.826005,-0.62351 1.06195,-0.91002 l 0.02532,-2.24999 c -0.539301,0.55615 -1.205193,1.07013 -1.997292,1.54202 -0.792102,0.45504 -1.643261,0.68265 -2.553333,0.68265 -0.808955,0 -1.52514,-0.16885 -2.148707,-0.50591 -0.623568,-0.35392 -1.129081,-0.82556 -1.516703,-1.41542 -0.387623,-0.58986 -0.632169,-1.23882 -0.733288,-1.94665 h 9.707417 v -1.23869 c 0,-1.16287 -0.219141,-2.20776 -0.657325,-3.13469 -0.421328,-0.92693 -1.061815,-1.66005 -1.921328,-2.19935 -0.859514,-0.5393 -1.937766,-0.80873 -3.235462,-0.80873 z m 41.711669,0 c -1.28085,0 -2.4189,0.3033 -3.41323,0.91002 -0.99434,0.60671 -1.77775,1.41553 -2.35076,2.42672 -0.55616,1.0112 -0.83406,2.11486 -0.83406,3.31143 0,1.19658 0.2779,2.30075 0.83406,3.31194 0.57301,0.99434 1.35642,1.79469 2.35076,2.40141 0.99433,0.60672 2.13238,0.91002 3.41323,0.91002 1.28084,0 2.41837,-0.3033 3.41271,-0.91002 0.99434,-0.60672 1.76929,-1.40707 2.32544,-2.40141 0.57301,-1.01119 0.8599,-2.11536 0.8599,-3.31194 0,-1.19657 -0.28689,-2.30023 -0.8599,-3.31143 -0.55615,-1.01119 -1.3311,-1.82001 -2.32544,-2.42672 -0.99434,-0.60672 -2.13187,-0.91002 -3.41271,-0.91002 z m 35.31567,0 c -0.573,0 -1.12933,0.11752 -1.66863,0.35346 -0.52245,0.23594 -0.99409,0.5313 -1.41542,0.88522 -0.42132,0.33706 -0.76697,0.67373 -1.03663,1.01079 v -1.99677 h -2.07274 v 12.63953 h 2.07274 v -8.39277 c 0.5056,-0.65727 1.08681,-1.23001 1.74408,-1.71876 0.67414,-0.5056 1.34849,-0.7586 2.02262,-0.7586 0.99433,0 1.72746,0.28637 2.19935,0.85937 0.48874,0.57302 0.73329,1.40724 0.73329,2.50269 l 0.0253,7.50807 h 2.07274 v -7.71012 c 0,-1.16287 -0.21067,-2.1236 -0.632,-2.88199 -0.42134,-0.77525 -0.98612,-1.34799 -1.69395,-1.71876 -0.70784,-0.38762 -1.49125,-0.58136 -2.35077,-0.58136 z m 20.17345,0 c -1.14601,0 -2.18244,0.2779 -3.10937,0.83405 -0.92693,0.5393 -1.66005,1.31425 -2.19935,2.32544 -0.52245,1.0112 -0.78393,2.21647 -0.78393,3.61529 0,1.28084 0.26148,2.4099 0.78393,3.38739 0.5393,0.97748 1.25549,1.74448 2.14871,2.30063 0.89322,0.53931 1.87884,0.80874 2.95744,0.80874 0.96063,0 1.81179,-0.2525 2.55333,-0.7581 0.75839,-0.50559 1.35654,-1.09579 1.79472,-1.76991 v 2.1487 h 2.07326 v -12.63953 h -2.07326 v 1.69343 c -0.5393,-0.60671 -1.18774,-1.07835 -1.94613,-1.41542 -0.74154,-0.35391 -1.47466,-0.53071 -2.19935,-0.53071 z m 16.2295,0 c -1.28085,0 -2.41838,0.3033 -3.41271,0.91002 -0.99434,0.60671 -1.77827,1.41553 -2.35128,2.42672 -0.55616,1.0112 -0.83406,2.11486 -0.83406,3.31143 0,1.19658 0.2779,2.30075 0.83406,3.31194 0.57301,0.99434 1.35694,1.79469 2.35128,2.40141 0.99433,0.60672 2.13186,0.91002 3.41271,0.91002 1.28084,0 2.41837,-0.3033 3.41271,-0.91002 0.99434,-0.60672 1.76981,-1.40707 2.32596,-2.40141 0.57301,-1.01119 0.85938,-2.11536 0.85938,-3.31194 0,-1.19657 -0.28637,-2.30023 -0.85938,-3.31143 -0.55615,-1.01119 -1.33162,-1.82001 -2.32596,-2.42672 -0.99434,-0.60672 -2.13187,-0.91002 -3.41271,-0.91002 z m 30.9423,0 c -1.17972,0 -2.23309,0.3033 -3.16002,0.91002 -0.91007,0.60671 -1.62626,1.41553 -2.1487,2.42672 -0.52245,1.0112 -0.78342,2.11486 -0.78342,3.31143 0,1.19658 0.2779,2.30075 0.83406,3.31194 0.57301,0.99434 1.35642,1.79469 2.35076,2.40141 0.99433,0.60672 2.13238,0.91002 3.41323,0.91002 0.65727,0 1.28083,-0.10957 1.87069,-0.32866 0.60671,-0.20224 1.13711,-0.45474 1.59215,-0.7581 0.47188,-0.3202 0.826,-0.62351 1.06195,-0.91002 l 0.0253,-2.24999 c -0.53931,0.55615 -1.20519,1.07013 -1.99729,1.54202 -0.7921,0.45504 -1.64275,0.68265 -2.55282,0.68265 -0.80895,0 -1.52565,-0.16885 -2.14922,-0.50591 -0.62357,-0.35392 -1.12909,-0.82556 -1.51671,-1.41542 -0.38762,-0.58986 -0.63165,-1.23882 -0.73277,-1.94665 h 9.70742 v -1.23869 c 0,-1.16287 -0.21914,-2.20776 -0.65733,-3.13469 -0.42133,-0.92693 -1.06181,-1.66005 -1.92133,-2.19935 -0.85951,-0.5393 -1.93828,-0.80873 -3.23597,-0.80873 z m 15.19338,0 c -0.72468,0 -1.43292,0.2525 -2.1239,0.75809 -0.69098,0.5056 -1.28066,1.17996 -1.7694,2.02261 v -2.528 h -2.07274 v 12.63953 h 2.07274 v -7.63416 c 0.47189,-0.84266 0.96893,-1.56731 1.49139,-2.17402 0.5393,-0.60672 1.23906,-0.91003 2.09858,-0.91003 0.5393,0 1.07868,0.15986 1.61798,0.48008 v -2.4014 c -0.38762,-0.16854 -0.8259,-0.2527 -1.31465,-0.2527 z m -220.339005,0.2527 v 7.48274 c 0,1.11232 0.236078,2.07304 0.707967,2.882 0.47189,0.80895 1.112378,1.4325 1.92133,1.87068 0.808954,0.43819 1.718875,0.65733 2.730066,0.65733 1.011192,0 1.92163,-0.21914 2.730583,-0.65733 0.808953,-0.43818 1.449441,-1.06173 1.92133,-1.87068 0.471889,-0.80896 0.70745,-1.76968 0.70745,-2.882 v -7.48274 h -2.148706 v 7.48274 c 0,1.09546 -0.328712,1.93815 -0.985986,2.52801 -0.640422,0.57301 -1.382011,0.85938 -2.224671,0.85938 -0.842659,0 -1.5922,-0.28637 -2.249475,-0.85938 -0.640421,-0.58986 -0.960665,-1.43255 -0.960665,-2.52801 v -7.48274 z m 25.204148,0 v 7.48274 c 0,1.11232 0.236077,2.07304 0.707967,2.882 0.47189,0.80895 1.112377,1.4325 1.92133,1.87068 0.808953,0.43819 1.718874,0.65733 2.730063,0.65733 1.011193,0 1.921114,-0.21914 2.730067,-0.65733 0.808952,-0.43818 1.44944,-1.06173 1.92133,-1.87068 0.471889,-0.80896 0.707966,-1.76968 0.707966,-2.882 v -7.48274 h -2.148705 v 7.48274 c 0,1.09546 -0.32871,1.93815 -0.985985,2.52801 -0.640422,0.57301 -1.382012,0.85938 -2.224673,0.85938 -0.842658,0 -1.592715,-0.28637 -2.24999,-0.85938 -0.640421,-0.58986 -0.960665,-1.43255 -0.960665,-2.52801 v -7.48274 z m 85.521397,0 4.42402,12.63953 h 1.28933 l 3.46335,-8.92348 3.46336,8.92348 h 1.28932 l 4.42402,-12.63953 h -2.47737 l -2.80603,8.87284 -3.31194,-8.87284 h -1.16272 l -3.31194,8.87284 -2.80603,-8.87284 z m -120.3569983,1.7694 c 0.9100722,0 1.6940033,0.21913 2.3512777,0.65732 0.6741276,0.42133 1.1881078,0.98612 1.5420248,1.69395 0.3707701,0.69098 0.5560384,1.44899 0.5560384,2.2748 0,0.80895 -0.1852683,1.56748 -0.5560384,2.27531 -0.353917,0.69098 -0.8678972,1.25577 -1.5420248,1.69396 -0.6572744,0.42132 -1.4412055,0.632 -2.3512777,0.632 -0.8932191,0 -1.67663338,-0.21068 -2.35076077,-0.632 -0.67412765,-0.43819 -1.19657603,-1.00298 -1.56734643,-1.69396 -0.3539167,-0.70783 -0.5312336,-1.46636 -0.5312336,-2.27531 0,-0.82581 0.1773169,-1.58382 0.5312336,-2.2748 0.3707704,-0.70783 0.89321878,-1.27262 1.56734643,-1.69395 0.67412739,-0.43819 1.45754167,-0.65732 2.35076077,-0.65732 z m 70.4044893,0 c 0.589862,0 1.154133,0.13497 1.693436,0.40462 0.539303,0.25279 0.994521,0.64027 1.365293,1.16272 0.387622,0.52245 0.623699,1.19681 0.707966,2.02262 h -7.609355 c 0.168531,-0.99434 0.589878,-1.83703 1.264007,-2.52801 0.674126,-0.70784 1.533755,-1.06195 2.578653,-1.06195 z m 41.711669,0 c 0.91007,0 1.69349,0.21913 2.35076,0.65732 0.67413,0.42133 1.18811,0.98612 1.54203,1.69395 0.37077,0.69098 0.55603,1.44899 0.55603,2.2748 0,0.80895 -0.18526,1.56748 -0.55603,2.27531 -0.35392,0.69098 -0.8679,1.25577 -1.54203,1.69396 -0.65727,0.42132 -1.44069,0.632 -2.35076,0.632 -0.89322,0 -1.67715,-0.21068 -2.35128,-0.632 -0.67413,-0.43819 -1.19657,-1.00298 -1.56735,-1.69396 -0.35392,-0.70783 -0.53071,-1.46636 -0.53071,-2.27531 0,-0.82581 0.17679,-1.58382 0.53071,-2.2748 0.37078,-0.70783 0.89322,-1.27262 1.56735,-1.69395 0.67413,-0.43819 1.45806,-0.65732 2.35128,-0.65732 z m 55.86791,0 c 0.77524,0 1.45808,0.18526 2.04793,0.55603 0.60672,0.37077 1.17099,0.88475 1.69344,1.54203 l 0.0253,2.42724 c 0.0169,0.89322 -0.15147,1.70204 -0.50539,2.42673 -0.35392,0.70783 -0.83402,1.26415 -1.44074,1.66863 -0.60672,0.40447 -1.29802,0.60668 -2.07326,0.60668 -0.80896,0 -1.52514,-0.20221 -2.14871,-0.60668 -0.60671,-0.40448 -1.07835,-0.94387 -1.41542,-1.61799 -0.33706,-0.69098 -0.50591,-1.44104 -0.50591,-2.24999 0,-0.82581 0.16885,-1.5928 0.50591,-2.30064 0.35392,-0.72469 0.85097,-1.31436 1.49138,-1.7694 0.64043,-0.45504 1.41537,-0.68264 2.32545,-0.68264 z m 15.85071,0 c 0.91007,0 1.69349,0.21913 2.35076,0.65732 0.67413,0.42133 1.18811,0.98612 1.54203,1.69395 0.37077,0.69098 0.55655,1.44899 0.55655,2.2748 0,0.80895 -0.18578,1.56748 -0.55655,2.27531 -0.35392,0.69098 -0.8679,1.25577 -1.54203,1.69396 -0.65727,0.42132 -1.44069,0.632 -2.35076,0.632 -0.89322,0 -1.67715,-0.21068 -2.35128,-0.632 -0.67412,-0.43819 -1.19657,-1.00298 -1.56734,-1.69396 -0.35392,-0.70783 -0.53072,-1.46636 -0.53072,-2.27531 0,-0.82581 0.1768,-1.58382 0.53072,-2.2748 0.37077,-0.70783 0.89322,-1.27262 1.56734,-1.69395 0.67413,-0.43819 1.45806,-0.65732 2.35128,-0.65732 z m 30.9423,0 c 0.58986,0 1.15464,0.13497 1.69395,0.40462 0.5393,0.25279 0.99401,0.64027 1.36478,1.16272 0.38762,0.52245 0.6237,1.19681 0.70796,2.02262 h -7.60935 c 0.16853,-0.99434 0.58988,-1.83703 1.264,-2.52801 0.67413,-0.70784 1.53376,-1.06195 2.57866,-1.06195 z m -159.464693,0.0253 c 0.910074,0 1.685021,0.2276 2.325442,0.68264 0.640421,0.43818 1.129511,1.01939 1.466577,1.74408 0.353915,0.70784 0.530715,1.47483 0.530715,2.30064 0,0.80895 -0.168331,1.55054 -0.505394,2.22467 -0.337063,0.67412 -0.80922,1.21351 -1.415934,1.61799 -0.606716,0.40447 -1.3229,0.60668 -2.148707,0.60668 -0.758394,0 -1.449174,-0.20221 -2.072741,-0.60668 -0.606716,-0.40448 -1.08734,-0.9608 -1.441257,-1.66864 -0.337063,-0.70783 -0.505394,-1.50818 -0.505394,-2.4014 l 0.02532,-2.42724 c 0.539303,-0.65728 1.103574,-1.16279 1.693437,-1.51671 0.589862,-0.37077 1.27269,-0.55603 2.047936,-0.55603 z m 144.119893,0.0253 c 0.77524,0 1.45807,0.17679 2.04794,0.53071 0.60671,0.35392 1.17098,0.85943 1.69343,1.51671 l 0.0253,2.42724 c 0.0169,0.89322 -0.15147,1.70204 -0.50539,2.42673 -0.35392,0.70783 -0.83454,1.26415 -1.44126,1.66863 -0.60671,0.40447 -1.29749,0.60668 -2.07274,0.60668 -0.80895,0 -1.52514,-0.20221 -2.14871,-0.60668 -0.60671,-0.40448 -1.07886,-0.94387 -1.41593,-1.61799 -0.33707,-0.69098 -0.5054,-1.44104 -0.5054,-2.24999 0,-0.82581 0.16833,-1.5928 0.5054,-2.30064 0.35392,-0.70783 0.85148,-1.28058 1.4919,-1.71876 0.64042,-0.45504 1.41536,-0.68264 2.32544,-0.68264 z" />
    </clipPath>
  </defs>
  <sodipodi:namedview
     inkscape:snap-global="false"
     showborder="false"
     inkscape:document-rotation="0"
     fit-margin-bottom="0"
     fit-margin-right="0"
     fit-margin-left="0"
     fit-margin-top="0"
     inkscape:guide-bbox="true"
     showguides="true"
     inkscape:window-maximized="1"
     inkscape:window-y="0"
     inkscape:window-x="0"
     inkscape:window-height="1027"
     inkscape:window-width="1920"
     inkscape:object-paths="true"
     inkscape:snap-smooth-nodes="false"
     showgrid="false"
     inkscape:current-layer="layer1"
     inkscape:document-units="px"
     inkscape:cy="486.67122"
     inkscape:cx="617.67382"
     inkscape:zoom="0.5"
     inkscape:pageshadow="2"
     inkscape:pageopacity="0.0"
     borderopacity="1.0"
     bordercolor="#666666"
     pagecolor="#ffffff"
     id="base" />
  <metadata
     id="metadata5">
    <rdf:RDF>
      <cc:Work
         rdf:about="">
        <dc:format>image/svg+xml</dc:format>
        <dc:type
           rdf:resource="http://purl.org/dc/dcmitype/StillImage" />
        <dc:title></dc:title>
      </cc:Work>
    </rdf:RDF>
  </metadata>
  <g
     transform="translate(21.458624,-69.428099)"
     id="layer1"
     inkscape:groupmode="layer"
     inkscape:label="Layer 1">
    <g
       transform="matrix(1.6488296,0,0,1.6488296,5.879759,81.568356)"
       id="g977">
      <path
         style="fill:#ff0000"
         inkscape:connector-curvature="0"
         id="path973"
         d="M 118.9,13.3 C 117.5,8.1 113.4,4 108.2,2.6 98.7,0 60.7,0 60.7,0 60.7,0 22.7,0 13.2,2.5 8.1,3.9 3.9,8.1 2.5,13.3 0,22.8 0,42.5 0,42.5 0,42.5 0,62.3 2.5,71.7 3.9,76.9 8,81 13.2,82.4 22.8,85 60.7,85 60.7,85 c 0,0 38,0 47.5,-2.5 5.2,-1.4 9.3,-5.5 10.7,-10.7 2.5,-9.5 2.5,-29.2 2.5,-29.2 0,0 0.1,-19.8 -2.5,-29.3 z"
         class="st0" />
      <polygon
         style="fill:#ffffff"
         id="polygon975"
         points="48.6,24.3 48.6,60.7 80.2,42.5 "
         class="st1" />
    </g>
    <path
       sodipodi:nodetypes="ccccccssc"
       inkscape:connector-curvature="0"
       id="rect850"
       d="M 92.682134,69.485623 C 107.52432,94.998986 117.03648,127.41351 119.87461,162.14918 H 86.014025 l 53.426915,53.43239 53.43236,-53.43239 h -43.90654 c -2.11351,-32.64112 -10.59349,-64.748844 -19.68126,-91.787637 -0.17014,-0.506399 -0.85125,-0.795612 -1.38509,-0.805151 -12.32349,-0.220352 -23.47884,-0.05295 -35.218276,-0.0741 z"
       style="opacity:1;fill:url(#linearGradient1050);fill-opacity:1;fill-rule:nonzero;stroke:#000000;stroke-width:0;stroke-linecap:butt;stroke-linejoin:round;stroke-miterlimit:4;stroke-dasharray:none;stroke-dashoffset:64.47;stroke-opacity:1;paint-order:markers fill stroke" />
    <path
       inkscape:connector-curvature="0"
       id="path880"
       d="m 86.012869,162.09876 v 11.00521 l 42.488721,42.47676 h 10.94124 z"
       style="color:#000000;font-style:normal;font-variant:normal;font-weight:normal;font-stretch:normal;font-size:medium;line-height:normal;font-family:sans-serif;font-variant-ligatures:normal;font-variant-position:normal;font-variant-caps:normal;font-variant-numeric:normal;font-variant-alternates:normal;font-feature-settings:normal;text-indent:0;text-align:start;text-decoration:none;text-decoration-line:none;text-decoration-style:solid;text-decoration-color:#000000;letter-spacing:normal;word-spacing:normal;text-transform:none;writing-mode:lr-tb;direction:ltr;text-orientation:mixed;dominant-baseline:auto;baseline-shift:baseline;text-anchor:start;white-space:normal;shape-padding:0;clip-rule:nonzero;display:inline;overflow:visible;visibility:visible;opacity:1;isolation:auto;mix-blend-mode:normal;color-interpolation:sRGB;color-interpolation-filters:linearRGB;solid-color:#000000;solid-opacity:1;vector-effect:none;fill:url(#linearGradient1066);fill-opacity:1;fill-rule:nonzero;stroke:none;stroke-width:15.4827;stroke-linecap:butt;stroke-linejoin:miter;stroke-miterlimit:4;stroke-dasharray:none;stroke-dashoffset:64.47;stroke-opacity:1;paint-order:markers fill stroke;color-rendering:auto;image-rendering:auto;shape-rendering:auto;text-rendering:auto;enable-background:accumulate" />
    <path
       inkscape:connector-curvature="0"
       id="path993"
       d="m 88.81363,69.428099 0.04026,0.06359 c 16.36354,24.255317 26.93667,57.054081 29.86195,92.653181 v 0.0423 h 5.85409 l -0.006,-0.053 C 121.85545,127.24313 112.21579,94.722556 97.093217,69.461029 l -0.0097,-0.02115 z"
       style="color:#000000;font-style:normal;font-variant:normal;font-weight:normal;font-stretch:normal;font-size:medium;line-height:normal;font-family:sans-serif;font-variant-ligatures:normal;font-variant-position:normal;font-variant-caps:normal;font-variant-numeric:normal;font-variant-alternates:normal;font-feature-settings:normal;text-indent:0;text-align:start;text-decoration:none;text-decoration-line:none;text-decoration-style:solid;text-decoration-color:#000000;letter-spacing:normal;word-spacing:normal;text-transform:none;writing-mode:lr-tb;direction:ltr;text-orientation:mixed;dominant-baseline:auto;baseline-shift:baseline;text-anchor:start;white-space:normal;shape-padding:0;clip-rule:nonzero;display:inline;overflow:visible;visibility:visible;opacity:0.509;isolation:auto;mix-blend-mode:normal;color-interpolation:sRGB;color-interpolation-filters:linearRGB;solid-color:#000000;solid-opacity:1;vector-effect:none;fill:#000000;fill-opacity:1;fill-rule:nonzero;stroke:none;stroke-width:0;stroke-linecap:square;stroke-linejoin:miter;stroke-miterlimit:4;stroke-dasharray:none;stroke-dashoffset:64.47;stroke-opacity:1;paint-order:markers fill stroke;color-rendering:auto;image-rendering:auto;shape-rendering:auto;text-rendering:auto;enable-background:accumulate" />
    <path
       inkscape:connector-curvature="0"
       id="ellipse920"
       d="m 88.954437,69.512858 8.077689,0.02115 C 112.13964,94.778476 121.77586,127.28125 124.4893,162.14925 h -5.69101 C 115.86908,126.56678 105.30624,93.784856 88.954437,69.518955 Z"
       style="color:#000000;font-style:normal;font-variant:normal;font-weight:normal;font-stretch:normal;font-size:medium;line-height:normal;font-family:sans-serif;font-variant-ligatures:normal;font-variant-position:normal;font-variant-caps:normal;font-variant-numeric:normal;font-variant-alternates:normal;font-feature-settings:normal;text-indent:0;text-align:start;text-decoration:none;text-decoration-line:none;text-decoration-style:solid;text-decoration-color:#000000;letter-spacing:normal;word-spacing:normal;text-transform:none;writing-mode:lr-tb;direction:ltr;text-orientation:mixed;dominant-baseline:auto;baseline-shift:baseline;text-anchor:start;white-space:normal;shape-padding:0;clip-rule:nonzero;display:inline;overflow:visible;visibility:visible;opacity:1;isolation:auto;mix-blend-mode:normal;color-interpolation:sRGB;color-interpolation-filters:linearRGB;solid-color:#000000;solid-opacity:1;vector-effect:none;fill:url(#linearGradient1082);fill-opacity:1;fill-rule:nonzero;stroke:none;stroke-width:0;stroke-linecap:square;stroke-linejoin:miter;stroke-miterlimit:4;stroke-dasharray:none;stroke-dashoffset:64.47;stroke-opacity:1;paint-order:markers fill stroke;color-rendering:auto;image-rendering:auto;shape-rendering:auto;text-rendering:auto;enable-background:accumulate" />
    <path
       sodipodi:nodetypes="sccccccccccccccccs"
       inkscape:connector-curvature="0"
       id="path1007"
       transform="scale(0.26458333)"
       d="m 335.68359,262.42969 c -0.006,-0.009 -0.0273,0.008 -0.0273,0.008 l -27.10742,46.94922 9.36523,-0.19922 9.10156,-0.16016 8.11329,-0.12109 6.78515,-0.11914 6.04102,-0.0801 5.46289,-0.0801 4.55469,-0.041 5.58593,-0.0625 -3.08789,-5.58008 -4.83789,-8.55274 -4.12695,-7.0332 -6.42383,-10.49023 -5.28515,-8.24414 -3.11133,-4.69922 c 0,0 -0.72146,-1.05601 -1.00196,-1.49414 z"
       style="fill:url(#linearGradient1090);fill-opacity:1;stroke:#000000;stroke-width:0.0400405;stroke-linecap:butt;stroke-linejoin:miter;stroke-miterlimit:4;stroke-dasharray:none;stroke-opacity:1" />
    <path
       inkscape:connector-curvature="0"
       id="path1011"
       transform="scale(0.26458333)"
       d="m 335.6582,262.42969 -0.01,0.006 -0.002,0.002 -39.41992,47.22852 12.32227,-0.2793 27.11133,-46.95703 z"
       style="fill:#004d99;fill-opacity:1;stroke:#000000;stroke-width:0.0400405;stroke-linecap:butt;stroke-linejoin:miter;stroke-miterlimit:4;stroke-dasharray:none;stroke-opacity:1" />
    <text
       style="font-size:22.5778px;line-height:1.25;font-family:Sen;-inkscape-font-specification:'Sen, Normal';letter-spacing:0px;word-spacing:0px;white-space:pre;shape-inside:url(#rect859);"
       id="text857"
       xml:space="preserve" />
    <path
       transform="matrix(0.26458334,0,0,0.26458334,5.879759,69.428099)"
       d="m 172.70508,613.79492 v 68.79297 h 7.83594 v -8.12109 c 1.65612,2.54788 3.88482,4.77855 6.6875,6.68945 2.86636,1.91093 6.11535,2.86523 9.74609,2.86523 4.14031,0 7.86548,-1.01831 11.17773,-3.05664 3.37595,-2.10199 6.05274,-5.00087 8.02735,-8.69531 2.0383,-3.69444 3.05664,-7.96176 3.05664,-12.80273 0,-5.28686 -1.01834,-9.84223 -3.05664,-13.66407 -1.97461,-3.82183 -4.71346,-6.75076 -8.2168,-8.78906 -3.43964,-2.10199 -7.35685,-3.15234 -11.75195,-3.15234 -2.73898,0 -5.54184,0.66823 -8.40821,2.00586 -2.80267,1.27395 -5.22341,3.05652 -7.26171,5.34961 v -27.42188 z m 402.72656,0 v 68.79297 h 7.83398 v -68.79297 z m 178.28711,0 v 27.42188 c -2.03832,-2.29309 -4.49105,-4.07566 -7.35742,-5.34961 -2.80267,-1.33763 -5.57353,-2.00586 -8.3125,-2.00586 -4.33139,0 -8.24861,1.05035 -11.75195,3.15234 -3.50335,2.0383 -6.27421,4.96723 -8.3125,8.78906 -1.97463,3.82184 -2.96094,8.37721 -2.96094,13.66407 0,4.84097 0.98631,9.10829 2.96094,12.80273 2.03829,3.69444 4.74514,6.59332 8.12109,8.69531 3.37595,2.03833 7.10309,3.05664 11.17969,3.05664 3.63074,0 6.84772,-0.9543 9.65039,-2.86523 2.86637,-1.9109 5.12706,-4.14157 6.7832,-6.68945 v 8.12109 h 7.83398 v -68.79297 z m -412.4707,3.25 c -4.3951,0 -8.44034,0.22209 -12.13477,0.66797 -3.69443,0.44586 -7.48362,1.02003 -11.36914,1.7207 v 61.72266 c 3.88552,0.70067 7.67471,1.27287 11.36914,1.71875 3.69443,0.44588 7.73967,0.66992 12.13477,0.66992 7.19777,0 13.28163,-1.46642 18.25,-4.39648 5.03206,-2.93007 8.85324,-6.87927 11.46484,-11.84766 2.67528,-5.03206 4.01367,-10.69984 4.01367,-17.00586 0,-6.30601 -1.33839,-11.94374 -4.01367,-16.91211 -2.6116,-5.03206 -6.43278,-9.01329 -11.46484,-11.94336 -4.96837,-2.93006 -11.05223,-4.39453 -18.25,-4.39453 z m -444.57422,1.52735 24.556639,38.98437 v 25.03125 h 9.267578 v -26.27344 l 24.554687,-37.74218 h -10.318359 l -19.013672,30.19335 -18.726562,-30.19335 z m 190.328123,2.48437 c -1.592428,4.71358 -3.440964,8.69481 -5.542969,11.94336 -2.102001,3.18486 -4.712825,5.47756 -7.833984,6.87891 v 2.29492 h 9.171875 v 28.37695 c 0,4.0766 1.020284,7.35566 3.058594,9.83984 2.102002,2.42052 5.190962,3.63086 9.267578,3.63086 2.420487,0 4.331084,-0.3181 5.732423,-0.95507 1.46503,-0.57328 2.83543,-1.36951 4.10937,-2.38868 v -6.40234 c -0.95545,0.57328 -2.07176,1.11544 -3.3457,1.625 -1.27394,0.44588 -2.866432,0.66992 -4.777343,0.66992 -2.102005,0 -3.662486,-0.57417 -4.681641,-1.7207 -1.019152,-1.14656 -1.527344,-2.70704 -1.527344,-4.68164 v -27.99414 h 13.949218 v -7.35742 H 90.632812 v -13.75977 z m 254.246097,4.10938 c 5.15946,0 9.58682,1.11435 13.28125,3.34375 3.75813,2.16569 6.625,5.15863 8.59961,8.98046 2.03832,3.75814 3.05664,8.02742 3.05664,12.80469 0,4.7773 -1.01832,9.07663 -3.05664,12.89844 -1.97461,3.75813 -4.84148,6.75108 -8.59961,8.98047 -3.69443,2.16572 -8.12179,3.24805 -13.28125,3.24805 -2.2931,0 -4.74584,-0.0942 -7.35743,-0.28516 -2.61158,-0.19109 -5.12638,-0.41513 -7.54687,-0.66992 v -48.34571 c 2.42049,-0.31838 4.93529,-0.54047 7.54687,-0.66797 2.61159,-0.19099 5.06433,-0.2871 7.35743,-0.2871 z m -355.525394,8.69531 c -4.840979,0 -9.140309,1.14636 -12.898437,3.43945 -3.758129,2.29309 -6.719065,5.35004 -8.884766,9.17188 -2.102004,3.82183 -3.154297,7.99314 -3.154297,12.51562 0,4.52251 1.052293,8.69577 3.154297,12.51758 2.165701,3.75813 5.126637,6.78308 8.884766,9.07617 3.758128,2.29312 8.057458,3.43945 12.898437,3.43945 4.8409796,0 9.1403092,-1.14633 12.8984378,-3.43945 3.7581285,-2.29309 6.6890117,-5.31804 8.7910156,-9.07617 2.1657012,-3.82181 3.2480466,-7.99507 3.2480466,-12.51758 0,-4.52248 -1.0823454,-8.69379 -3.2480466,-12.51562 -2.1020039,-3.82184 -5.0328871,-6.87879 -8.7910156,-9.17188 -3.7581286,-2.29309 -8.0574582,-3.43945 -12.8984378,-3.43945 z m 266.095704,0 c -4.4588,0 -8.44002,1.14636 -11.94336,3.43945 -3.43964,2.29309 -6.14648,5.35004 -8.12109,9.17188 -1.97461,3.82183 -2.96289,7.99314 -2.96289,12.51562 0,4.52251 1.05033,8.69577 3.15234,12.51758 2.1657,3.75813 5.12859,6.78308 8.88672,9.07617 3.75813,2.29312 8.05746,3.43945 12.89844,3.43945 2.48418,0 4.84091,-0.41411 7.07031,-1.24218 2.29309,-0.76437 4.29971,-1.71868 6.01953,-2.86524 1.78352,-1.21023 3.12191,-2.35659 4.01367,-3.43945 l 0.0957,-8.50391 c -2.0383,2.102 -4.55506,4.04459 -7.54882,5.82813 -2.99377,1.71981 -6.21075,2.58008 -9.65039,2.58008 -3.05747,0 -5.76431,-0.63819 -8.1211,-1.91211 -2.35679,-1.33765 -4.26739,-3.12022 -5.73242,-5.34961 -1.46503,-2.22939 -2.3893,-4.68215 -2.77148,-7.35742 h 36.68945 v -4.68165 c 0,-4.39511 -0.82825,-8.34431 -2.48438,-11.84765 -1.59242,-3.50335 -4.01316,-6.2742 -7.26171,-8.3125 -3.24856,-2.0383 -7.32384,-3.05664 -12.22852,-3.05664 z m 157.65039,0 c -4.841,0 -9.14228,1.14636 -12.90039,3.43945 -3.75814,2.29309 -6.71907,5.35004 -8.88477,9.17188 -2.10202,3.82183 -3.15234,7.99314 -3.15234,12.51562 0,4.52251 1.05032,8.69577 3.15234,12.51758 2.1657,3.75813 5.12663,6.78308 8.88477,9.07617 3.75811,2.29312 8.05939,3.43945 12.90039,3.43945 4.84097,0 9.1403,-1.14633 12.89844,-3.43945 3.75813,-2.29309 6.68706,-5.31804 8.78906,-9.07617 2.16569,-3.82181 3.25,-7.99507 3.25,-12.51758 0,-4.52248 -1.08431,-8.69379 -3.25,-12.51562 -2.102,-3.82184 -5.03093,-6.87879 -8.78906,-9.17188 -3.75814,-2.29309 -8.05747,-3.43945 -12.89844,-3.43945 z m 133.47656,0 c -2.16569,0 -4.26834,0.44417 -6.30664,1.33594 -1.97462,0.89174 -3.75719,2.00805 -5.34961,3.3457 -1.59241,1.27393 -2.8988,2.54636 -3.91797,3.82031 v -7.54687 h -7.83398 v 47.77148 h 7.83398 v -31.7207 c 1.91091,-2.48419 4.10762,-4.64889 6.5918,-6.4961 2.54791,-1.91093 5.09665,-2.86718 7.64453,-2.86718 3.75811,0 6.52897,1.08235 8.3125,3.24804 1.84721,2.16572 2.77149,5.31869 2.77149,9.45899 l 0.0957,28.37695 h 7.83398 v -29.14062 c 0,-4.39509 -0.79625,-8.02621 -2.38867,-10.89258 -1.59244,-2.93007 -3.72707,-5.09475 -6.40234,-6.4961 -2.67528,-1.46502 -5.63621,-2.19726 -8.88477,-2.19726 z m 76.2461,0 c -4.33139,0 -8.24861,1.05035 -11.75196,3.15234 -3.50334,2.0383 -6.2742,4.96723 -8.3125,8.78906 -1.97462,3.82184 -2.96289,8.37721 -2.96289,13.66407 0,4.84097 0.98827,9.10829 2.96289,12.80273 2.0383,3.69444 4.74515,6.59332 8.1211,8.69531 3.37595,2.03833 7.10113,3.05664 11.17773,3.05664 3.63074,0 6.84772,-0.9543 9.65039,-2.86523 2.86637,-1.9109 5.12707,-4.14157 6.78321,-6.68945 v 8.12109 h 7.83593 v -47.77148 h -7.83593 v 6.40039 c -2.03833,-2.29309 -4.48911,-4.07566 -7.35547,-5.34961 -2.80267,-1.33763 -5.57353,-2.00586 -8.3125,-2.00586 z m 61.33984,0 c -4.841,0 -9.14033,1.14636 -12.89844,3.43945 -3.75813,2.29309 -6.72102,5.35004 -8.88672,9.17188 -2.10202,3.82183 -3.15234,7.99314 -3.15234,12.51562 0,4.52251 1.05032,8.69577 3.15234,12.51758 2.1657,3.75813 5.12859,6.78308 8.88672,9.07617 3.75811,2.29312 8.05744,3.43945 12.89844,3.43945 4.84097,0 9.1403,-1.14633 12.89844,-3.43945 3.75813,-2.29309 6.68902,-5.31804 8.79101,-9.07617 2.1657,-3.82181 3.24805,-7.99507 3.24805,-12.51758 0,-4.52248 -1.08235,-8.69379 -3.24805,-12.51562 -2.10199,-3.82184 -5.03288,-6.87879 -8.79101,-9.17188 -3.75814,-2.29309 -8.05747,-3.43945 -12.89844,-3.43945 z m 116.94727,0 c -4.45879,0 -8.44002,1.14636 -11.94336,3.43945 -3.43965,2.29309 -6.1465,5.35004 -8.1211,9.17188 -1.97462,3.82183 -2.96094,7.99314 -2.96094,12.51562 10e-6,4.52251 1.05033,8.69577 3.15235,12.51758 2.16569,3.75813 5.12663,6.78308 8.88476,9.07617 3.75811,2.29312 8.0594,3.43945 12.90039,3.43945 2.48419,0 4.84093,-0.41411 7.07032,-1.24218 2.29309,-0.76437 4.29774,-1.71868 6.01758,-2.86524 1.7835,-1.21023 3.1219,-2.35659 4.01367,-3.43945 l 0.0957,-8.50391 c -2.03832,2.102 -4.55506,4.04459 -7.54883,5.82813 -2.99376,1.71981 -6.20881,2.58008 -9.64844,2.58008 -3.05746,0 -5.76623,-0.63819 -8.12304,-1.91211 -2.35679,-1.33765 -4.2674,-3.12022 -5.73242,-5.34961 -1.46505,-2.22939 -2.38735,-4.68215 -2.76954,-7.35742 h 36.68946 v -4.68165 c 0,-4.39511 -0.82826,-8.34431 -2.48438,-11.84765 -1.59244,-3.50335 -4.01316,-6.2742 -7.26172,-8.3125 -3.24855,-2.0383 -7.3258,-3.05664 -12.23046,-3.05664 z m 57.42382,0 c -2.73897,0 -5.41576,0.95433 -8.02734,2.86523 -2.6116,1.91093 -4.84029,4.45968 -6.6875,7.64453 v -9.55468 h -7.83398 v 47.77148 h 7.83398 v -28.85351 c 1.78351,-3.18486 3.66209,-5.92371 5.63672,-8.2168 2.0383,-2.29309 4.68309,-3.43946 7.93164,-3.43946 2.0383,0 4.07691,0.6042 6.11523,1.81446 v -9.07617 c -1.46504,-0.63698 -3.12154,-0.95508 -4.96875,-0.95508 z M 22.125,634.81641 v 28.28125 c 0,4.20402 0.892263,7.83511 2.675781,10.89257 1.783519,3.05747 4.20426,5.4142 7.261719,7.07032 3.057461,1.65614 6.496534,2.48437 10.318359,2.48437 3.821826,0 7.262851,-0.82823 10.320313,-2.48437 3.057459,-1.65612 5.4782,-4.01285 7.261719,-7.07032 1.783518,-3.05746 2.673828,-6.68855 2.673828,-10.89257 v -28.28125 h -8.121094 v 28.28125 c 0,4.14032 -1.242375,7.32529 -3.726563,9.55468 -2.42049,2.1657 -5.223348,3.24805 -8.408203,3.24805 -3.184854,0 -6.017765,-1.08235 -8.501953,-3.24805 -2.42049,-2.22939 -3.630859,-5.41436 -3.630859,-9.55468 v -28.28125 z m 95.25977,0 v 28.28125 c 0,4.20402 0.89226,7.83511 2.67578,10.89257 1.78352,3.05747 4.20426,5.4142 7.26172,7.07032 3.05746,1.65614 6.49653,2.48437 10.31835,2.48437 3.82183,0 7.2609,-0.82823 10.31836,-2.48437 3.05746,-1.65612 5.4782,-4.01285 7.26172,-7.07032 1.78352,-3.05746 2.67578,-6.68855 2.67578,-10.89257 v -28.28125 h -8.12109 v 28.28125 c 0,4.14032 -1.24237,7.32529 -3.72656,9.55468 -2.42049,2.1657 -5.22335,3.24805 -8.40821,3.24805 -3.18485,0 -6.01971,-1.08235 -8.5039,-3.24805 -2.42049,-2.22939 -3.63086,-5.41436 -3.63086,-9.55468 v -28.28125 z m 323.23046,0 16.72071,47.77148 h 4.87304 l 13.08985,-33.72656 13.08984,33.72656 h 4.87305 l 16.7207,-47.77148 h -9.36328 l -10.60547,33.53515 -12.51758,-33.53515 h -4.39453 l -12.51758,33.53515 -10.60546,-33.53515 z m -454.892574,6.6875 c 3.439643,0 6.4025323,0.82823 8.886719,2.48437 2.5478838,1.59242 4.49048596,3.72707 5.828125,6.40234 1.4013359,2.61158 2.1015625,5.4765 2.1015625,8.59766 0,3.05746 -0.7002266,5.92434 -2.1015625,8.59961 -1.33763904,2.61158 -3.2802412,4.74621 -5.828125,6.40234 -2.4841867,1.59242 -5.447076,2.38868 -8.886719,2.38868 -3.375946,0 -6.336882,-0.79626 -8.884765,-2.38868 -2.547884,-1.65613 -4.522492,-3.79076 -5.923829,-6.40234 -1.337638,-2.67527 -2.007812,-5.54215 -2.007812,-8.59961 0,-3.12116 0.670174,-5.98608 2.007812,-8.59766 1.401337,-2.67527 3.375945,-4.80992 5.923829,-6.40234 2.547883,-1.65614 5.508819,-2.48437 8.884765,-2.48437 z m 266.095704,0 c 2.2294,0 4.36208,0.51013 6.40039,1.52929 2.03831,0.95544 3.75882,2.41991 5.16016,4.39453 1.46503,1.97461 2.35729,4.52338 2.67578,7.64454 h -28.75977 c 0.63697,-3.75814 2.22946,-6.94311 4.77735,-9.55469 2.54788,-2.67528 5.79687,-4.01367 9.74609,-4.01367 z m 157.65039,0 c 3.43965,0 6.40058,0.82823 8.88477,2.48437 2.54788,1.59242 4.4905,3.72707 5.82812,6.40234 1.40135,2.61158 2.10156,5.4765 2.10156,8.59766 0,3.05746 -0.70021,5.92434 -2.10156,8.59961 -1.33762,2.61158 -3.28024,4.74621 -5.82812,6.40234 -2.48419,1.59242 -5.44512,2.38868 -8.88477,2.38868 -3.37595,0 -6.33884,-0.79626 -8.88672,-2.38868 -2.54788,-1.65613 -4.52248,-3.79076 -5.92383,-6.40234 -1.33765,-2.67527 -2.00586,-5.54215 -2.00586,-8.59961 0,-3.12116 0.66821,-5.98608 2.00586,-8.59766 1.40135,-2.67527 3.37595,-4.80992 5.92383,-6.40234 2.54788,-1.65614 5.51077,-2.48437 8.88672,-2.48437 z m 211.1543,0 c 2.93006,0 5.51084,0.70021 7.74023,2.10156 2.29309,1.40132 4.42577,3.34394 6.40039,5.82812 l 0.0957,9.17383 c 0.0637,3.37595 -0.57251,6.4329 -1.91016,9.17188 -1.33763,2.67527 -3.1522,4.77789 -5.44531,6.30664 -2.29309,1.52872 -4.90588,2.29297 -7.83594,2.29297 -3.05746,0 -5.76431,-0.76425 -8.12109,-2.29297 -2.29309,-1.52875 -4.07566,-3.56736 -5.34961,-6.11524 -1.27393,-2.61157 -1.91211,-5.44644 -1.91211,-8.5039 0,-3.12116 0.63818,-6.02004 1.91211,-8.69532 1.33765,-2.73897 3.21623,-4.96768 5.63671,-6.6875 2.42049,-1.71983 5.34942,-2.58007 8.78907,-2.58007 z m 59.9082,0 c 3.43965,0 6.40058,0.82823 8.88477,2.48437 2.54788,1.59242 4.4905,3.72707 5.82812,6.40234 1.40135,2.61158 2.10352,5.4765 2.10352,8.59766 0,3.05746 -0.70217,5.92434 -2.10352,8.59961 -1.33762,2.61158 -3.28024,4.74621 -5.82812,6.40234 -2.48419,1.59242 -5.44512,2.38868 -8.88477,2.38868 -3.37595,0 -6.33884,-0.79626 -8.88672,-2.38868 -2.54788,-1.65613 -4.52248,-3.79076 -5.92383,-6.40234 -1.33765,-2.67527 -2.00586,-5.54215 -2.00586,-8.59961 0,-3.12116 0.66821,-5.98608 2.00586,-8.59766 1.40135,-2.67527 3.37595,-4.80992 5.92383,-6.40234 2.54788,-1.65614 5.51077,-2.48437 8.88672,-2.48437 z m 116.94727,0 c 2.22939,0 4.36401,0.51013 6.40234,1.52929 2.0383,0.95544 3.75688,2.41991 5.1582,4.39453 1.46505,1.97461 2.3573,4.52338 2.67578,7.64454 h -28.75976 c 0.63697,-3.75814 2.22946,-6.94311 4.77734,-9.55469 2.54788,-2.67528 5.79687,-4.01367 9.7461,-4.01367 z m -602.70118,0.0957 c 3.43965,0 6.36858,0.86024 8.78907,2.58008 2.42049,1.65611 4.26902,3.85282 5.54297,6.59179 1.33763,2.67528 2.00585,5.57416 2.00585,8.69532 0,3.05746 -0.63621,5.86032 -1.91015,8.4082 -1.27394,2.54788 -3.05847,4.58649 -5.35156,6.11523 -2.2931,1.52872 -4.99994,2.29297 -8.1211,2.29297 -2.86637,0 -5.47719,-0.76425 -7.83398,-2.29297 -2.2931,-1.52874 -4.10963,-3.63136 -5.44727,-6.30664 -1.27394,-2.67527 -1.91015,-5.70022 -1.91015,-9.07617 l 0.0957,-9.17383 c 2.03831,-2.48418 4.17099,-4.39479 6.40039,-5.73242 2.2294,-1.40135 4.81017,-2.10156 7.74023,-2.10156 z m 544.70508,0.0957 c 2.93007,0 5.51084,0.66821 7.74024,2.00586 2.29309,1.33763 4.42576,3.24824 6.40039,5.73242 l 0.0957,9.17383 c 0.0637,3.37595 -0.57251,6.4329 -1.91016,9.17188 -1.33765,2.67527 -3.15417,4.77789 -5.44726,6.30664 -2.29309,1.52872 -4.90392,2.29297 -7.83399,2.29297 -3.05746,0 -5.7643,-0.76425 -8.12109,-2.29297 -2.29309,-1.52875 -4.07761,-3.56736 -5.35156,-6.11524 -1.27396,-2.61157 -1.91016,-5.44644 -1.91016,-8.5039 0,-3.12116 0.6362,-6.02004 1.91016,-8.69532 1.33765,-2.67527 3.21818,-4.83998 5.63867,-6.49609 2.42048,-1.71984 5.34941,-2.58008 8.78906,-2.58008 z"
       style="font-size:25.8865px;line-height:1.25;font-family:Sen;-inkscape-font-specification:'Sen, Normal';letter-spacing:0px;word-spacing:0px;fill:#004d99;fill-opacity:1;stroke-width:1.147;stroke-miterlimit:4;stroke-dasharray:none"
       id="path867" />
    <path
       clip-path="url(#clipPath940)"
       d="m -38.950081,224.83344 v 57.43164 H 260.26164 v -57.43164 z m 89.936116,6.68487 h 2.073259 v 7.25537 c 0.539301,-0.60672 1.179788,-1.07835 1.921328,-1.41542 0.758394,-0.35391 1.499984,-0.53072 2.224672,-0.53072 1.16287,0 2.199299,0.27791 3.10937,0.83406 0.926926,0.5393 1.65158,1.31425 2.174029,2.32544 0.5393,1.01119 0.808736,2.21647 0.808736,3.61528 0,1.28084 -0.269436,2.40991 -0.808736,3.38739 -0.522449,0.97749 -1.230683,1.74449 -2.123903,2.30064 -0.876367,0.53931 -1.861984,0.80873 -2.957442,0.80873 -0.960633,0 -1.820261,-0.25249 -2.578653,-0.75809 -0.741542,-0.50559 -1.331219,-1.09579 -1.769401,-1.76992 v 2.14871 h -2.073259 z m 106.554735,0 h 2.07274 v 18.20147 h -2.07274 z m 47.1718,0 h 2.07274 v 18.20147 h -2.07274 v -2.14871 c -0.43818,0.67413 -1.03633,1.26433 -1.79472,1.76992 -0.74154,0.5056 -1.5927,0.75809 -2.55333,0.75809 -1.0786,0 -2.06474,-0.26942 -2.95796,-0.80873 -0.89322,-0.55615 -1.60941,-1.32315 -2.14871,-2.30064 -0.52245,-0.97748 -0.78341,-2.10655 -0.78341,-3.38739 0,-1.39881 0.26096,-2.60409 0.78341,-3.61528 0.5393,-1.01119 1.27242,-1.78614 2.19935,-2.32544 0.92693,-0.55615 1.96336,-0.83406 3.10937,-0.83406 0.72469,0 1.45781,0.17681 2.19935,0.53072 0.7584,0.33707 1.40735,0.8087 1.94665,1.41542 z M 95.579697,232.3782 c 1.90441,0 3.514098,0.38748 4.828643,1.16272 1.3314,0.77525 2.34242,1.82862 3.03341,3.16002 0.70783,1.31454 1.06195,2.80619 1.06195,4.47466 0,1.66847 -0.35412,3.16807 -1.06195,4.49946 -0.69099,1.31456 -1.70201,2.35945 -3.03341,3.1347 -1.314545,0.77524 -2.924233,1.16323 -4.828643,1.16323 -1.16287,0 -2.233173,-0.0593 -3.210658,-0.17725 -0.977484,-0.11797 -1.980041,-0.26936 -3.008085,-0.45475 V 233.0102 c 1.028044,-0.18538 2.030601,-0.3373 3.008085,-0.45526 0.977485,-0.11798 2.047788,-0.17674 3.210658,-0.17674 z m -117.626932,0.40411 h 2.730582 l 4.954737,7.98866 5.0307006,-7.98866 h 2.7300659 l -6.4967615,9.98595 v 6.95152 h -2.452046 v -6.62285 z m 50.357651,0.65733 h 0.960664 v 3.6406 h 3.690731 v 1.94665 H 29.27108 v 7.40679 c 0,0.52244 0.13446,0.93532 0.40411,1.23868 0.269652,0.30335 0.682529,0.45527 1.238684,0.45527 0.505596,0 0.926942,-0.0593 1.264006,-0.17725 0.337063,-0.13482 0.63242,-0.27827 0.885216,-0.42995 v 1.69395 c -0.337063,0.26966 -0.699648,0.48033 -1.087271,0.63201 -0.370771,0.16853 -0.876283,0.25269 -1.516703,0.25269 -1.078605,0 -1.895892,-0.32023 -2.452047,-0.96066 -0.539303,-0.65727 -0.809253,-1.52486 -0.809253,-2.60346 v -7.50807 h -2.426725 v -0.6072 c 0.825806,-0.37077 1.516587,-0.97738 2.072741,-1.82004 0.556156,-0.85951 1.045248,-1.91288 1.466578,-3.16001 z m 67.269281,1.08727 c -0.606716,0 -1.255667,0.0254 -1.946653,0.076 -0.690981,0.0337 -1.356355,0.0925 -1.996776,0.17673 v 12.79147 c 0.640421,0.0674 1.305795,0.12669 1.996776,0.17725 0.690986,0.0505 1.339937,0.0754 1.946653,0.0754 1.365107,0 2.536513,-0.28636 3.513998,-0.85938 0.994335,-0.58986 1.752865,-1.38174 2.275315,-2.37608 0.5393,-1.01119 0.80873,-2.14872 0.80873,-3.41271 0,-1.26399 -0.26943,-2.39357 -0.80873,-3.38791 -0.52245,-1.01119 -1.28098,-1.80307 -2.275315,-2.37608 -0.977485,-0.58986 -2.148891,-0.8847 -3.513998,-0.8847 z m -94.0660961,2.30063 c 1.2808427,0 2.4183735,0.30331 3.4127118,0.91002 0.9943382,0.60672 1.769801,1.41554 2.3259562,2.42673 0.5730085,1.01119 0.8593791,2.11485 0.8593791,3.31143 0,1.19658 -0.2863706,2.30075 -0.8593791,3.31194 -0.5561552,0.99434 -1.331618,1.79469 -2.3259562,2.4014 -0.9943383,0.60672 -2.1318691,0.91002 -3.4127118,0.91002 -1.28084237,0 -2.41837346,-0.3033 -3.4127115,-0.91002 -0.9943383,-0.60671 -1.7777527,-1.40706 -2.3507611,-2.4014 -0.5561552,-1.01119 -0.8345744,-2.11536 -0.8345744,-3.31194 0,-1.19658 0.2784192,-2.30024 0.8345744,-3.31143 0.5730084,-1.01119 1.3564228,-1.82001 2.3507611,-2.42673 0.99433804,-0.60671 2.13186913,-0.91002 3.4127115,-0.91002 z m 70.4044901,0 c 1.297697,0 2.375945,0.26944 3.235463,0.80874 0.859512,0.5393 1.499999,1.27242 1.921327,2.19935 0.438185,0.92692 0.657326,1.97182 0.657326,3.13469 v 1.23869 H 68.02479 c 0.101118,0.70783 0.345664,1.35679 0.733287,1.94665 0.387622,0.58986 0.893135,1.06149 1.516703,1.41541 0.623567,0.33706 1.339752,0.50592 2.148708,0.50592 0.910071,0 1.76123,-0.22762 2.553332,-0.68265 0.792099,-0.47189 1.457992,-0.98587 1.997292,-1.54203 l -0.02532,2.25 c -0.235944,0.2865 -0.59006,0.58981 -1.06195,0.91002 -0.455036,0.30336 -0.985954,0.55585 -1.592667,0.75809 -0.589862,0.2191 -1.213414,0.32866 -1.870686,0.32866 -1.280843,0 -2.418374,-0.3033 -3.412713,-0.91002 -0.994338,-0.60671 -1.77827,-1.40706 -2.351278,-2.4014 -0.556157,-1.01119 -0.834056,-2.11536 -0.834056,-3.31194 0,-1.19658 0.261482,-2.30024 0.783931,-3.31143 0.522449,-1.01119 1.238634,-1.82001 2.148705,-2.42673 0.926925,-0.60671 1.98029,-0.91002 3.160013,-0.91002 z m 41.711669,0 c 1.28084,0 2.41837,0.30331 3.41271,0.91002 0.99434,0.60672 1.76928,1.41554 2.32544,2.42673 0.573,1.01119 0.85989,2.11485 0.85989,3.31143 0,1.19658 -0.28689,2.30075 -0.85989,3.31194 -0.55616,0.99434 -1.3311,1.79469 -2.32544,2.4014 -0.99434,0.60672 -2.13187,0.91002 -3.41271,0.91002 -1.28085,0 -2.4189,-0.3033 -3.41323,-0.91002 -0.99434,-0.60671 -1.77775,-1.40706 -2.35076,-2.4014 -0.55616,-1.01119 -0.83406,-2.11536 -0.83406,-3.31194 0,-1.19658 0.2779,-2.30024 0.83406,-3.31143 0.57301,-1.01119 1.35642,-1.82001 2.35076,-2.42673 0.99433,-0.60671 2.13238,-0.91002 3.41323,-0.91002 z m 35.31567,0 c 0.85952,0 1.64293,0.19374 2.35076,0.58136 0.70784,0.37078 1.27262,0.94351 1.69396,1.71876 0.42132,0.7584 0.632,1.71913 0.632,2.882 v 7.71012 h -2.07274 l -0.0253,-7.50807 c 0,-1.09545 -0.24455,-1.92968 -0.73329,-2.50269 -0.47189,-0.57301 -1.20502,-0.85938 -2.19935,-0.85938 -0.67413,0 -1.34848,0.25301 -2.02262,0.75861 -0.65727,0.48874 -1.23848,1.06149 -1.74408,1.71876 v 8.39277 h -2.07274 v -12.63954 h 2.07274 v 1.99678 c 0.26966,-0.33707 0.61531,-0.67373 1.03663,-1.01079 0.42133,-0.35392 0.89297,-0.64928 1.41542,-0.88522 0.5393,-0.23595 1.09563,-0.35347 1.66863,-0.35347 z m 20.17345,0 c 0.72469,0 1.45781,0.17681 2.19935,0.53072 0.75839,0.33707 1.40682,0.8087 1.94613,1.41542 v -1.69344 h 2.07326 v 12.63954 h -2.07326 v -2.14871 c -0.43819,0.67413 -1.03633,1.26433 -1.79472,1.76992 -0.74154,0.5056 -1.5927,0.75809 -2.55333,0.75809 -1.0786,0 -2.06422,-0.26942 -2.95744,-0.80873 -0.89322,-0.55615 -1.60941,-1.32315 -2.14871,-2.30064 -0.52245,-0.97748 -0.78393,-2.10655 -0.78393,-3.38739 0,-1.39881 0.26148,-2.60409 0.78393,-3.61528 0.5393,-1.01119 1.27242,-1.78614 2.19935,-2.32544 0.92692,-0.55615 1.96336,-0.83406 3.10937,-0.83406 z m 16.2295,0 c 1.28084,0 2.41837,0.30331 3.41271,0.91002 0.99434,0.60672 1.7698,1.41554 2.32596,2.42673 0.573,1.01119 0.85938,2.11485 0.85938,3.31143 0,1.19658 -0.28638,2.30075 -0.85938,3.31194 -0.55616,0.99434 -1.33162,1.79469 -2.32596,2.4014 -0.99434,0.60672 -2.13187,0.91002 -3.41271,0.91002 -1.28085,0 -2.41838,-0.3033 -3.41271,-0.91002 -0.99434,-0.60671 -1.77827,-1.40706 -2.35128,-2.4014 -0.55616,-1.01119 -0.83406,-2.11536 -0.83406,-3.31194 0,-1.19658 0.2779,-2.30024 0.83406,-3.31143 0.57301,-1.01119 1.35694,-1.82001 2.35128,-2.42673 0.99433,-0.60671 2.13186,-0.91002 3.41271,-0.91002 z m 30.9423,0 c 1.29769,0 2.37646,0.26944 3.23597,0.80874 0.85952,0.5393 1.5,1.27242 1.92133,2.19935 0.43819,0.92692 0.65733,1.97182 0.65733,3.13469 v 1.23869 h -9.70742 c 0.10112,0.70783 0.34515,1.35679 0.73277,1.94665 0.38762,0.58986 0.89314,1.06149 1.51671,1.41541 0.62357,0.33706 1.34027,0.50592 2.14922,0.50592 0.91007,0 1.76072,-0.22762 2.55281,-0.68265 0.79211,-0.47189 1.45799,-0.98587 1.9973,-1.54203 l -0.0253,2.25 c -0.23595,0.2865 -0.59007,0.58981 -1.06195,0.91002 -0.45504,0.30336 -0.98544,0.55585 -1.59215,0.75809 -0.58986,0.2191 -1.21341,0.32866 -1.87069,0.32866 -1.28085,0 -2.4189,-0.3033 -3.41323,-0.91002 -0.99434,-0.60671 -1.77775,-1.40706 -2.35076,-2.4014 -0.55616,-1.01119 -0.83405,-2.11536 -0.83406,-3.31194 0,-1.19658 0.26097,-2.30024 0.78342,-3.31143 0.52244,-1.01119 1.23863,-1.82001 2.1487,-2.42673 0.92693,-0.60671 1.9803,-0.91002 3.16002,-0.91002 z m 15.19338,0 c 0.48875,0 0.92703,0.0842 1.31465,0.2527 v 2.40141 c -0.5393,-0.32022 -1.07868,-0.48008 -1.61798,-0.48008 -0.85952,0 -1.55928,0.30331 -2.09858,0.91002 -0.52246,0.60672 -1.0195,1.33137 -1.49139,2.17403 v 7.63416 h -2.07274 v -12.63954 h 2.07274 v 2.52801 c 0.48874,-0.84266 1.07842,-1.51701 1.7694,-2.02261 0.69098,-0.5056 1.39922,-0.7581 2.1239,-0.7581 z m -220.339005,0.2527 h 2.149223 v 7.48275 c 0,1.09546 0.320243,1.93815 0.960664,2.52801 0.657275,0.57301 1.406816,0.85938 2.249476,0.85938 0.842659,0 1.584249,-0.28637 2.22467,-0.85938 0.657275,-0.58986 0.985986,-1.43255 0.985986,-2.52801 v -7.48275 h 2.148707 v 7.48275 c 0,1.11231 -0.235562,2.07304 -0.707451,2.88199 -0.471889,0.80896 -1.112377,1.43251 -1.92133,1.87069 -0.808953,0.43819 -1.719391,0.65732 -2.730582,0.65732 -1.011192,0 -1.921113,-0.21913 -2.730066,-0.65732 -0.808953,-0.43818 -1.449441,-1.06173 -1.92133,-1.87069 -0.471889,-0.80895 -0.707967,-1.76968 -0.707967,-2.88199 z m 25.204148,0 h 2.148705 v 7.48275 c 0,1.09546 0.320244,1.93815 0.960665,2.52801 0.657275,0.57301 1.407332,0.85938 2.24999,0.85938 0.842664,0 1.584251,-0.28637 2.224673,-0.85938 0.657275,-0.58986 0.985985,-1.43255 0.985985,-2.52801 v -7.48275 h 2.148705 v 7.48275 c 0,1.11231 -0.236077,2.07304 -0.707966,2.88199 -0.47189,0.80896 -1.112378,1.43251 -1.921331,1.87069 -0.808953,0.43819 -1.718871,0.65732 -2.730066,0.65732 -1.01119,0 -1.92111,-0.21913 -2.730063,-0.65732 -0.808953,-0.43818 -1.449441,-1.06173 -1.92133,-1.87069 -0.47189,-0.80895 -0.707967,-1.76968 -0.707967,-2.88199 z m 85.521397,0 h 2.47737 l 2.80603,8.87284 3.31194,-8.87284 h 1.16272 l 3.31194,8.87284 2.80603,-8.87284 h 2.47737 l -4.42402,12.63954 h -1.28933 l -3.46335,-8.92349 -3.46336,8.92349 h -1.28932 z m -120.3569991,1.7694 c -0.89321905,0 -1.67663339,0.21914 -2.35076078,0.65733 -0.67412762,0.42132 -1.19657582,0.98612 -1.56734642,1.69395 -0.3539168,0.69098 -0.5312336,1.44899 -0.5312336,2.2748 0,0.80895 0.1773168,1.56748 0.5312336,2.27531 0.3707706,0.69098 0.8932188,1.25577 1.56734642,1.69395 0.67412739,0.42133 1.45754173,0.63201 2.35076078,0.63201 0.9100723,0 1.6940034,-0.21068 2.3512778,-0.63201 0.6741276,-0.43818 1.1881078,-1.00297 1.5420248,-1.69395 0.3707701,-0.70783 0.5560384,-1.46636 0.5560384,-2.27531 0,-0.82581 -0.1852683,-1.58382 -0.5560384,-2.2748 -0.353917,-0.70783 -0.8678972,-1.27263 -1.5420248,-1.69395 -0.6572744,-0.43819 -1.4412055,-0.65733 -2.3512778,-0.65733 z m 70.4044901,0 c -1.044898,0 -1.904526,0.35412 -2.578653,1.06195 -0.674129,0.69098 -1.095476,1.53367 -1.264007,2.52801 h 7.609356 c -0.08427,-0.8258 -0.320344,-1.50016 -0.707967,-2.02261 -0.370771,-0.52245 -0.82599,-0.90993 -1.365292,-1.16272 -0.539303,-0.26966 -1.103575,-0.40463 -1.693437,-0.40463 z m 41.711669,0 c -0.89322,0 -1.67715,0.21914 -2.35128,0.65733 -0.67413,0.42132 -1.19657,0.98612 -1.56735,1.69395 -0.35392,0.69098 -0.53071,1.44899 -0.53071,2.2748 0,0.80895 0.17679,1.56748 0.53071,2.27531 0.37078,0.69098 0.89322,1.25577 1.56735,1.69395 0.67413,0.42133 1.45806,0.63201 2.35128,0.63201 0.91007,0 1.69348,-0.21068 2.35076,-0.63201 0.67413,-0.43818 1.18811,-1.00297 1.54202,-1.69395 0.37078,-0.70783 0.55604,-1.46636 0.55604,-2.27531 0,-0.82581 -0.18526,-1.58382 -0.55604,-2.2748 -0.35391,-0.70783 -0.86789,-1.27263 -1.54202,-1.69395 -0.65728,-0.43819 -1.44069,-0.65733 -2.35076,-0.65733 z m 55.86791,0 c -0.91008,0 -1.68502,0.22761 -2.32544,0.68265 -0.64042,0.45503 -1.13746,1.04471 -1.49138,1.7694 -0.33706,0.70783 -0.50592,1.47483 -0.50592,2.30063 0,0.80896 0.16886,1.55902 0.50592,2.24999 0.33706,0.67413 0.8087,1.21351 1.41541,1.618 0.62357,0.40447 1.33976,0.60668 2.14871,0.60668 0.77524,0 1.46655,-0.20221 2.07326,-0.60668 0.60672,-0.40449 1.08682,-0.9608 1.44074,-1.66864 0.35392,-0.72469 0.52224,-1.5335 0.50539,-2.42672 l -0.0253,-2.42725 c -0.52245,-0.65727 -1.08672,-1.17125 -1.69344,-1.54202 -0.58986,-0.37077 -1.27269,-0.55604 -2.04793,-0.55604 z m 15.85071,0 c -0.89322,0 -1.67715,0.21914 -2.35128,0.65733 -0.67413,0.42132 -1.19657,0.98612 -1.56735,1.69395 -0.35392,0.69098 -0.53071,1.44899 -0.53071,2.2748 0,0.80895 0.17679,1.56748 0.53071,2.27531 0.37078,0.69098 0.89322,1.25577 1.56735,1.69395 0.67413,0.42133 1.45806,0.63201 2.35128,0.63201 0.91007,0 1.69349,-0.21068 2.35076,-0.63201 0.67413,-0.43818 1.18811,-1.00297 1.54202,-1.69395 0.37078,-0.70783 0.55656,-1.46636 0.55656,-2.27531 0,-0.82581 -0.18578,-1.58382 -0.55656,-2.2748 -0.35391,-0.70783 -0.86789,-1.27263 -1.54202,-1.69395 -0.65727,-0.43819 -1.44069,-0.65733 -2.35076,-0.65733 z m 30.9423,0 c -1.0449,0 -1.90453,0.35412 -2.57866,1.06195 -0.67412,0.69098 -1.09547,1.53367 -1.264,2.52801 h 7.60935 c -0.0843,-0.8258 -0.32034,-1.50016 -0.70797,-2.02261 -0.37076,-0.52245 -0.82547,-0.90993 -1.36477,-1.16272 -0.53931,-0.26966 -1.10409,-0.40463 -1.69395,-0.40463 z m -159.464693,0.0253 c -0.775245,0 -1.458073,0.18527 -2.047935,0.55604 -0.589863,0.35392 -1.154134,0.85943 -1.693437,1.5167 l -0.02532,2.42725 c 0,0.89322 0.168331,1.69357 0.505394,2.4014 0.353917,0.70783 0.834541,1.26415 1.441257,1.66863 0.623567,0.40448 1.314347,0.60668 2.072741,0.60668 0.825807,0 1.541991,-0.2022 2.148707,-0.60668 0.606714,-0.40448 1.078871,-0.94386 1.415934,-1.61799 0.337063,-0.67412 0.505394,-1.41571 0.505394,-2.22467 0,-0.8258 -0.1768,-1.5928 -0.530715,-2.30063 -0.337068,-0.72469 -0.826156,-1.3059 -1.466577,-1.74408 -0.640421,-0.45504 -1.415367,-0.68265 -2.325443,-0.68265 z m 144.119893,0.0253 c -0.91008,0 -1.68502,0.22761 -2.32544,0.68265 -0.64042,0.43818 -1.13798,1.01093 -1.4919,1.71876 -0.33707,0.70783 -0.5054,1.47483 -0.5054,2.30063 0,0.80896 0.16833,1.55902 0.5054,2.24999 0.33707,0.67413 0.80922,1.21351 1.41593,1.618 0.62357,0.40447 1.33976,0.60668 2.14871,0.60668 0.77525,0 1.46603,-0.20221 2.07274,-0.60668 0.60672,-0.40449 1.08734,-0.9608 1.44126,-1.66864 0.35392,-0.72469 0.52225,-1.5335 0.50539,-2.42672 l -0.0253,-2.42725 c -0.52245,-0.65727 -1.08672,-1.16278 -1.69343,-1.5167 -0.58987,-0.35392 -1.2727,-0.53072 -2.04794,-0.53072 z"
       style="fill:#000000;fill-opacity:1;stroke-width:0.303477;stroke-linecap:square;stroke-linejoin:round;stroke-miterlimit:4;stroke-dasharray:none;stroke-dashoffset:64.47;paint-order:markers fill stroke"
       id="rect922" />
  </g>
  <style
     type="text/css"
     id="style3">
	.st0{fill:#FF0000;}
	.st1{fill:#FFFFFF;}
	.st2{fill:#282828;}
</style>
  <style
     type="text/css"
     id="style3-7">
	.st0{fill:#FF0000;}
	.st1{fill:#FFFFFF;}
	.st2{fill:#282828;}
</style>
</svg>
