<?xml version="1.0" encoding="UTF-8" standalone="no"?>
<svg
   xmlns:dc="http://purl.org/dc/elements/1.1/"
   xmlns:cc="http://creativecommons.org/ns#"
   xmlns:rdf="http://www.w3.org/1999/02/22-rdf-syntax-ns#"
   xmlns:svg="http://www.w3.org/2000/svg"
   xmlns="http://www.w3.org/2000/svg"
   xmlns:xlink="http://www.w3.org/1999/xlink"
   xmlns:sodipodi="http://sodipodi.sourceforge.net/DTD/sodipodi-0.dtd"
   xmlns:inkscape="http://www.inkscape.org/namespaces/inkscape"
   width="321.02765mm"
   height="180.67734mm"
   viewBox="0 0 321.02764 180.67734"
   version="1.1"
   id="svg8"
   inkscape:version="1.0 (4035a4fb49, 2020-05-01)"
   sodipodi:docname="youtube-downloader-with-text.svg">
  <defs
     id="defs2">
    <rect
       x="9.9236336"
       y="234.49512"
       width="189.04836"
       height="59.247913"
       id="rect859" />
    <linearGradient
       inkscape:collect="always"
       id="linearGradient1088">
      <stop
         style="stop-color:#002c56;stop-opacity:1;"
         offset="0"
         id="stop1084" />
      <stop
         style="stop-color:#002c56;stop-opacity:0;"
         offset="1"
         id="stop1086" />
    </linearGradient>
    <linearGradient
       inkscape:collect="always"
       id="linearGradient1064">
      <stop
         style="stop-color:#0066cc;stop-opacity:1;"
         offset="0"
         id="stop1060" />
      <stop
         style="stop-color:#379bff;stop-opacity:1"
         offset="1"
         id="stop1062" />
    </linearGradient>
    <linearGradient
       inkscape:collect="always"
       id="linearGradient1048">
      <stop
         style="stop-color:#004d99;stop-opacity:1;"
         offset="0"
         id="stop1044" />
      <stop
         style="stop-color:#0097e8;stop-opacity:1"
         offset="1"
         id="stop1046" />
    </linearGradient>
    <pattern
       id="EMFhbasepattern"
       patternUnits="userSpaceOnUse"
       width="6"
       height="6"
       x="0"
       y="0" />
    <pattern
       id="EMFhbasepattern-3"
       patternUnits="userSpaceOnUse"
       width="6"
       height="6"
       x="0"
       y="0" />
    <pattern
       id="EMFhbasepattern-6"
       patternUnits="userSpaceOnUse"
       width="6"
       height="6"
       x="0"
       y="0" />
    <linearGradient
       inkscape:collect="always"
       xlink:href="#linearGradient1048"
       id="linearGradient1050"
       x1="311.2168"
       y1="489.44547"
       x2="294.5134"
       y2="444.74203"
       gradientUnits="userSpaceOnUse"
       gradientTransform="matrix(2.8030102,0,0,2.8030102,-689.31939,-1154.0228)" />
    <linearGradient
       inkscape:collect="always"
       xlink:href="#linearGradient1064"
       id="linearGradient1066"
       x1="73.1856"
       y1="126.07781"
       x2="78.228813"
       y2="129.28047"
       gradientUnits="userSpaceOnUse"
       gradientTransform="matrix(10.594054,0,0,10.594054,-689.31939,-1154.0228)" />
    <linearGradient
       inkscape:collect="always"
       xlink:href="#linearGradient1048"
       id="linearGradient1082"
       x1="74.146378"
       y1="116.63645"
       x2="74.230637"
       y2="115.48579"
       gradientUnits="userSpaceOnUse"
       gradientTransform="matrix(10.594054,0,0,10.594054,-689.31939,-1154.0228)" />
    <linearGradient
       inkscape:collect="always"
       xlink:href="#linearGradient1088"
       id="linearGradient1090"
       x1="73.789696"
       y1="116.01691"
       x2="76.960678"
       y2="117.54636"
       gradientUnits="userSpaceOnUse"
       gradientTransform="matrix(40.040516,0,0,40.040516,-2605.3016,-4361.6607)" />
    <clipPath
       clipPathUnits="userSpaceOnUse"
       id="clipPath940">
      <path
         d="m 51.574645,231.82801 v 18.20147 h 2.073259 v -2.1487 c 0.438182,0.67412 1.027859,1.26432 1.769401,1.76991 0.758392,0.5056 1.61802,0.7581 2.578653,0.7581 1.095457,0 2.081075,-0.26943 2.957442,-0.80874 0.89322,-0.55615 1.601454,-1.32315 2.123903,-2.30063 0.5393,-0.97749 0.808736,-2.10655 0.808736,-3.38739 0,-1.39882 -0.269436,-2.60409 -0.808736,-3.61529 -0.522449,-1.01119 -1.247103,-1.78614 -2.174029,-2.32544 -0.910071,-0.55615 -1.9465,-0.83405 -3.10937,-0.83405 -0.724688,0 -1.466278,0.1768 -2.224672,0.53071 -0.74154,0.33707 -1.382027,0.80871 -1.921328,1.41542 v -7.25537 z m 106.554735,0 v 18.20147 h 2.07275 v -18.20147 z m 47.1718,0 v 7.25537 c -0.5393,-0.60671 -1.18825,-1.07835 -1.94665,-1.41542 -0.74154,-0.35391 -1.47466,-0.53071 -2.19935,-0.53071 -1.14601,0 -2.18244,0.2779 -3.10937,0.83405 -0.92692,0.5393 -1.66005,1.31425 -2.19935,2.32544 -0.52245,1.0112 -0.78341,2.21647 -0.78341,3.61529 0,1.28084 0.26096,2.4099 0.78341,3.38739 0.5393,0.97748 1.25549,1.74448 2.14871,2.30063 0.89322,0.53931 1.87936,0.80874 2.95796,0.80874 0.96063,0 1.81179,-0.2525 2.55333,-0.7581 0.75839,-0.50559 1.35654,-1.09579 1.79472,-1.76991 v 2.1487 h 2.07274 v -18.20147 z m -109.132871,0.8599 c -1.16287,0 -2.233173,0.0588 -3.21066,0.17673 -0.977485,0.11797 -1.980042,0.26988 -3.008085,0.45527 v 16.33078 c 1.028043,0.18539 2.0306,0.33678 3.008085,0.45476 0.977487,0.11797 2.04779,0.17725 3.21066,0.17725 1.90441,0 3.514098,-0.38799 4.828641,-1.16324 1.3314,-0.77525 2.34242,-1.82014 3.03341,-3.13469 0.70784,-1.3314 1.06195,-2.831 1.06195,-4.49947 0,-1.66846 -0.35411,-3.16011 -1.06195,-4.47466 -0.69099,-1.3314 -1.70201,-2.38477 -3.03341,-3.16002 -1.314543,-0.77524 -2.924231,-1.16271 -4.828641,-1.16271 z m -117.626933,0.40411 6.497277,10.31461 v 6.62285 h 2.452047 v -6.95151 l 6.4967612,-9.98595 h -2.7300659 l -5.0307003,7.98865 -4.954737,-7.98865 z m 50.35765,0.65732 c -0.42133,1.24713 -0.910422,2.3005 -1.466577,3.16001 -0.556154,0.84266 -1.246935,1.44927 -2.072742,1.82005 v 0.6072 h 2.426726 v 7.50806 c 0,1.0786 0.26995,1.94619 0.809253,2.60346 0.556154,0.64043 1.373442,0.96067 2.452046,0.96067 0.640421,0 1.145933,-0.0842 1.516704,-0.2527 0.387622,-0.15168 0.750207,-0.36235 1.087271,-0.632 v -1.69396 c -0.252797,0.15168 -0.548154,0.29513 -0.885217,0.42995 -0.337063,0.11797 -0.75841,0.17725 -1.264005,0.17725 -0.556156,0 -0.969033,-0.15191 -1.238684,-0.45527 -0.269651,-0.30336 -0.40411,-0.71623 -0.40411,-1.23868 v -7.40678 h 3.69073 v -1.94665 h -3.69073 v -3.64061 z m 67.269283,1.08727 c 1.365107,0 2.536513,0.29484 3.513998,0.8847 0.994343,0.57301 1.752863,1.36489 2.275313,2.37608 0.53931,0.99434 0.80874,2.12392 0.80874,3.38791 0,1.26399 -0.26943,2.40153 -0.80874,3.41271 -0.52245,0.99434 -1.28097,1.78623 -2.275313,2.37609 -0.977485,0.57301 -2.148891,0.85938 -3.513998,0.85938 -0.606716,0 -1.25567,-0.0249 -1.946653,-0.0754 -0.690981,-0.0506 -1.356358,-0.10984 -1.996779,-0.17725 v -12.79147 c 0.640421,-0.0842 1.305798,-0.143 1.996779,-0.17674 0.690983,-0.0505 1.339937,-0.076 1.946653,-0.076 z m -94.0660973,2.30064 c -1.28084238,0 -2.41837345,0.3033 -3.4127115,0.91002 -0.9943383,0.60671 -1.7777529,1.41553 -2.3507613,2.42672 -0.5561552,1.0112 -0.8345744,2.11486 -0.8345744,3.31143 0,1.19658 0.2784192,2.30075 0.8345744,3.31194 0.5730084,0.99434 1.356423,1.79469 2.3507613,2.40141 0.99433805,0.60672 2.13186912,0.91002 3.4127115,0.91002 1.2808425,0 2.4183735,-0.3033 3.4127117,-0.91002 0.9943382,-0.60672 1.7698011,-1.40707 2.3259563,-2.40141 0.5730084,-1.01119 0.8593789,-2.11536 0.8593789,-3.31194 0,-1.19657 -0.2863705,-2.30023 -0.8593789,-3.31143 -0.5561552,-1.01119 -1.3316181,-1.82001 -2.3259563,-2.42672 -0.9943382,-0.60672 -2.1318692,-0.91002 -3.4127117,-0.91002 z m 70.4044893,0 c -1.179724,0 -2.233089,0.3033 -3.160014,0.91002 -0.910072,0.60671 -1.626256,1.41553 -2.148705,2.42672 -0.522449,1.0112 -0.783932,2.11486 -0.783932,3.31143 0,1.19658 0.2779,2.30075 0.834057,3.31194 0.573008,0.99434 1.356939,1.79469 2.351278,2.40141 0.994339,0.60672 2.13187,0.91002 3.412712,0.91002 0.657273,0 1.280824,-0.10957 1.870686,-0.32866 0.606714,-0.20224 1.137632,-0.45474 1.592668,-0.7581 0.471889,-0.3202 0.826005,-0.62351 1.06195,-0.91002 l 0.02532,-2.24999 c -0.539301,0.55615 -1.205193,1.07013 -1.997292,1.54202 -0.792102,0.45504 -1.643261,0.68265 -2.553333,0.68265 -0.808955,0 -1.52514,-0.16885 -2.148707,-0.50591 -0.623568,-0.35392 -1.129081,-0.82556 -1.516703,-1.41542 -0.387623,-0.58986 -0.632169,-1.23882 -0.733288,-1.94665 h 9.707417 v -1.23869 c 0,-1.16287 -0.219141,-2.20776 -0.657325,-3.13469 -0.421328,-0.92693 -1.061815,-1.66005 -1.921328,-2.19935 -0.859514,-0.5393 -1.937766,-0.80873 -3.235462,-0.80873 z m 41.711669,0 c -1.28085,0 -2.4189,0.3033 -3.41323,0.91002 -0.99434,0.60671 -1.77775,1.41553 -2.35076,2.42672 -0.55616,1.0112 -0.83406,2.11486 -0.83406,3.31143 0,1.19658 0.2779,2.30075 0.83406,3.31194 0.57301,0.99434 1.35642,1.79469 2.35076,2.40141 0.99433,0.60672 2.13238,0.91002 3.41323,0.91002 1.28084,0 2.41837,-0.3033 3.41271,-0.91002 0.99434,-0.60672 1.76929,-1.40707 2.32544,-2.40141 0.57301,-1.01119 0.8599,-2.11536 0.8599,-3.31194 0,-1.19657 -0.28689,-2.30023 -0.8599,-3.31143 -0.55615,-1.01119 -1.3311,-1.82001 -2.32544,-2.42672 -0.99434,-0.60672 -2.13187,-0.91002 -3.41271,-0.91002 z m 35.31567,0 c -0.573,0 -1.12933,0.11752 -1.66863,0.35346 -0.52245,0.23594 -0.99409,0.5313 -1.41542,0.88522 -0.42132,0.33706 -0.76697,0.67373 -1.03663,1.01079 v -1.99677 h -2.07274 v 12.63953 h 2.07274 v -8.39277 c 0.5056,-0.65727 1.08681,-1.23001 1.74408,-1.71876 0.67414,-0.5056 1.34849,-0.7586 2.02262,-0.7586 0.99433,0 1.72746,0.28637 2.19935,0.85937 0.48874,0.57302 0.73329,1.40724 0.73329,2.50269 l 0.0253,7.50807 h 2.07274 v -7.71012 c 0,-1.16287 -0.21067,-2.1236 -0.632,-2.88199 -0.42134,-0.77525 -0.98612,-1.34799 -1.69395,-1.71876 -0.70784,-0.38762 -1.49125,-0.58136 -2.35077,-0.58136 z m 20.17345,0 c -1.14601,0 -2.18244,0.2779 -3.10937,0.83405 -0.92693,0.5393 -1.66005,1.31425 -2.19935,2.32544 -0.52245,1.0112 -0.78393,2.21647 -0.78393,3.61529 0,1.28084 0.26148,2.4099 0.78393,3.38739 0.5393,0.97748 1.25549,1.74448 2.14871,2.30063 0.89322,0.53931 1.87884,0.80874 2.95744,0.80874 0.96063,0 1.81179,-0.2525 2.55333,-0.7581 0.75839,-0.50559 1.35654,-1.09579 1.79472,-1.76991 v 2.1487 h 2.07326 v -12.63953 h -2.07326 v 1.69343 c -0.5393,-0.60671 -1.18774,-1.07835 -1.94613,-1.41542 -0.74154,-0.35391 -1.47466,-0.53071 -2.19935,-0.53071 z m 16.2295,0 c -1.28085,0 -2.41838,0.3033 -3.41271,0.91002 -0.99434,0.60671 -1.77827,1.41553 -2.35128,2.42672 -0.55616,1.0112 -0.83406,2.11486 -0.83406,3.31143 0,1.19658 0.2779,2.30075 0.83406,3.31194 0.57301,0.99434 1.35694,1.79469 2.35128,2.40141 0.99433,0.60672 2.13186,0.91002 3.41271,0.91002 1.28084,0 2.41837,-0.3033 3.41271,-0.91002 0.99434,-0.60672 1.76981,-1.40707 2.32596,-2.40141 0.57301,-1.01119 0.85938,-2.11536 0.85938,-3.31194 0,-1.19657 -0.28637,-2.30023 -0.85938,-3.31143 -0.55615,-1.01119 -1.33162,-1.82001 -2.32596,-2.42672 -0.99434,-0.60672 -2.13187,-0.91002 -3.41271,-0.91002 z m 30.9423,0 c -1.17972,0 -2.23309,0.3033 -3.16002,0.91002 -0.91007,0.60671 -1.62626,1.41553 -2.1487,2.42672 -0.52245,1.0112 -0.78342,2.11486 -0.78342,3.31143 0,1.19658 0.2779,2.30075 0.83406,3.31194 0.57301,0.99434 1.35642,1.79469 2.35076,2.40141 0.99433,0.60672 2.13238,0.91002 3.41323,0.91002 0.65727,0 1.28083,-0.10957 1.87069,-0.32866 0.60671,-0.20224 1.13711,-0.45474 1.59215,-0.7581 0.47188,-0.3202 0.826,-0.62351 1.06195,-0.91002 l 0.0253,-2.24999 c -0.53931,0.55615 -1.20519,1.07013 -1.99729,1.54202 -0.7921,0.45504 -1.64275,0.68265 -2.55282,0.68265 -0.80895,0 -1.52565,-0.16885 -2.14922,-0.50591 -0.62357,-0.35392 -1.12909,-0.82556 -1.51671,-1.41542 -0.38762,-0.58986 -0.63165,-1.23882 -0.73277,-1.94665 h 9.70742 v -1.23869 c 0,-1.16287 -0.21914,-2.20776 -0.65733,-3.13469 -0.42133,-0.92693 -1.06181,-1.66005 -1.92133,-2.19935 -0.85951,-0.5393 -1.93828,-0.80873 -3.23597,-0.80873 z m 15.19338,0 c -0.72468,0 -1.43292,0.2525 -2.1239,0.75809 -0.69098,0.5056 -1.28066,1.17996 -1.7694,2.02261 v -2.528 h -2.07274 v 12.63953 h 2.07274 v -7.63416 c 0.47189,-0.84266 0.96893,-1.56731 1.49139,-2.17402 0.5393,-0.60672 1.23906,-0.91003 2.09858,-0.91003 0.5393,0 1.07868,0.15986 1.61798,0.48008 v -2.4014 c -0.38762,-0.16854 -0.8259,-0.2527 -1.31465,-0.2527 z m -220.339005,0.2527 v 7.48274 c 0,1.11232 0.236078,2.07304 0.707967,2.882 0.47189,0.80895 1.112378,1.4325 1.92133,1.87068 0.808954,0.43819 1.718875,0.65733 2.730066,0.65733 1.011192,0 1.92163,-0.21914 2.730583,-0.65733 0.808953,-0.43818 1.449441,-1.06173 1.92133,-1.87068 0.471889,-0.80896 0.70745,-1.76968 0.70745,-2.882 v -7.48274 h -2.148706 v 7.48274 c 0,1.09546 -0.328712,1.93815 -0.985986,2.52801 -0.640422,0.57301 -1.382011,0.85938 -2.224671,0.85938 -0.842659,0 -1.5922,-0.28637 -2.249475,-0.85938 -0.640421,-0.58986 -0.960665,-1.43255 -0.960665,-2.52801 v -7.48274 z m 25.204148,0 v 7.48274 c 0,1.11232 0.236077,2.07304 0.707967,2.882 0.47189,0.80895 1.112377,1.4325 1.92133,1.87068 0.808953,0.43819 1.718874,0.65733 2.730063,0.65733 1.011193,0 1.921114,-0.21914 2.730067,-0.65733 0.808952,-0.43818 1.44944,-1.06173 1.92133,-1.87068 0.471889,-0.80896 0.707966,-1.76968 0.707966,-2.882 v -7.48274 h -2.148705 v 7.48274 c 0,1.09546 -0.32871,1.93815 -0.985985,2.52801 -0.640422,0.57301 -1.382012,0.85938 -2.224673,0.85938 -0.842658,0 -1.592715,-0.28637 -2.24999,-0.85938 -0.640421,-0.58986 -0.960665,-1.43255 -0.960665,-2.52801 v -7.48274 z m 85.521397,0 4.42402,12.63953 h 1.28933 l 3.46335,-8.92348 3.46336,8.92348 h 1.28932 l 4.42402,-12.63953 h -2.47737 l -2.80603,8.87284 -3.31194,-8.87284 h -1.16272 l -3.31194,8.87284 -2.80603,-8.87284 z m -120.3569983,1.7694 c 0.9100722,0 1.6940033,0.21913 2.3512777,0.65732 0.6741276,0.42133 1.1881078,0.98612 1.5420248,1.69395 0.3707701,0.69098 0.5560384,1.44899 0.5560384,2.2748 0,0.80895 -0.1852683,1.56748 -0.5560384,2.27531 -0.353917,0.69098 -0.8678972,1.25577 -1.5420248,1.69396 -0.6572744,0.42132 -1.4412055,0.632 -2.3512777,0.632 -0.8932191,0 -1.67663338,-0.21068 -2.35076077,-0.632 -0.67412765,-0.43819 -1.19657603,-1.00298 -1.56734643,-1.69396 -0.3539167,-0.70783 -0.5312336,-1.46636 -0.5312336,-2.27531 0,-0.82581 0.1773169,-1.58382 0.5312336,-2.2748 0.3707704,-0.70783 0.89321878,-1.27262 1.56734643,-1.69395 0.67412739,-0.43819 1.45754167,-0.65732 2.35076077,-0.65732 z m 70.4044893,0 c 0.589862,0 1.154133,0.13497 1.693436,0.40462 0.539303,0.25279 0.994521,0.64027 1.365293,1.16272 0.387622,0.52245 0.623699,1.19681 0.707966,2.02262 h -7.609355 c 0.168531,-0.99434 0.589878,-1.83703 1.264007,-2.52801 0.674126,-0.70784 1.533755,-1.06195 2.578653,-1.06195 z m 41.711669,0 c 0.91007,0 1.69349,0.21913 2.35076,0.65732 0.67413,0.42133 1.18811,0.98612 1.54203,1.69395 0.37077,0.69098 0.55603,1.44899 0.55603,2.2748 0,0.80895 -0.18526,1.56748 -0.55603,2.27531 -0.35392,0.69098 -0.8679,1.25577 -1.54203,1.69396 -0.65727,0.42132 -1.44069,0.632 -2.35076,0.632 -0.89322,0 -1.67715,-0.21068 -2.35128,-0.632 -0.67413,-0.43819 -1.19657,-1.00298 -1.56735,-1.69396 -0.35392,-0.70783 -0.53071,-1.46636 -0.53071,-2.27531 0,-0.82581 0.17679,-1.58382 0.53071,-2.2748 0.37078,-0.70783 0.89322,-1.27262 1.56735,-1.69395 0.67413,-0.43819 1.45806,-0.65732 2.35128,-0.65732 z m 55.86791,0 c 0.77524,0 1.45808,0.18526 2.04793,0.55603 0.60672,0.37077 1.17099,0.88475 1.69344,1.54203 l 0.0253,2.42724 c 0.0169,0.89322 -0.15147,1.70204 -0.50539,2.42673 -0.35392,0.70783 -0.83402,1.26415 -1.44074,1.66863 -0.60672,0.40447 -1.29802,0.60668 -2.07326,0.60668 -0.80896,0 -1.52514,-0.20221 -2.14871,-0.60668 -0.60671,-0.40448 -1.07835,-0.94387 -1.41542,-1.61799 -0.33706,-0.69098 -0.50591,-1.44104 -0.50591,-2.24999 0,-0.82581 0.16885,-1.5928 0.50591,-2.30064 0.35392,-0.72469 0.85097,-1.31436 1.49138,-1.7694 0.64043,-0.45504 1.41537,-0.68264 2.32545,-0.68264 z m 15.85071,0 c 0.91007,0 1.69349,0.21913 2.35076,0.65732 0.67413,0.42133 1.18811,0.98612 1.54203,1.69395 0.37077,0.69098 0.55655,1.44899 0.55655,2.2748 0,0.80895 -0.18578,1.56748 -0.55655,2.27531 -0.35392,0.69098 -0.8679,1.25577 -1.54203,1.69396 -0.65727,0.42132 -1.44069,0.632 -2.35076,0.632 -0.89322,0 -1.67715,-0.21068 -2.35128,-0.632 -0.67412,-0.43819 -1.19657,-1.00298 -1.56734,-1.69396 -0.35392,-0.70783 -0.53072,-1.46636 -0.53072,-2.27531 0,-0.82581 0.1768,-1.58382 0.53072,-2.2748 0.37077,-0.70783 0.89322,-1.27262 1.56734,-1.69395 0.67413,-0.43819 1.45806,-0.65732 2.35128,-0.65732 z m 30.9423,0 c 0.58986,0 1.15464,0.13497 1.69395,0.40462 0.5393,0.25279 0.99401,0.64027 1.36478,1.16272 0.38762,0.52245 0.6237,1.19681 0.70796,2.02262 h -7.60935 c 0.16853,-0.99434 0.58988,-1.83703 1.264,-2.52801 0.67413,-0.70784 1.53376,-1.06195 2.57866,-1.06195 z m -159.464693,0.0253 c 0.910074,0 1.685021,0.2276 2.325442,0.68264 0.640421,0.43818 1.129511,1.01939 1.466577,1.74408 0.353915,0.70784 0.530715,1.47483 0.530715,2.30064 0,0.80895 -0.168331,1.55054 -0.505394,2.22467 -0.337063,0.67412 -0.80922,1.21351 -1.415934,1.61799 -0.606716,0.40447 -1.3229,0.60668 -2.148707,0.60668 -0.758394,0 -1.449174,-0.20221 -2.072741,-0.60668 -0.606716,-0.40448 -1.08734,-0.9608 -1.441257,-1.66864 -0.337063,-0.70783 -0.505394,-1.50818 -0.505394,-2.4014 l 0.02532,-2.42724 c 0.539303,-0.65728 1.103574,-1.16279 1.693437,-1.51671 0.589862,-0.37077 1.27269,-0.55603 2.047936,-0.55603 z m 144.119893,0.0253 c 0.77524,0 1.45807,0.17679 2.04794,0.53071 0.60671,0.35392 1.17098,0.85943 1.69343,1.51671 l 0.0253,2.42724 c 0.0169,0.89322 -0.15147,1.70204 -0.50539,2.42673 -0.35392,0.70783 -0.83454,1.26415 -1.44126,1.66863 -0.60671,0.40447 -1.29749,0.60668 -2.07274,0.60668 -0.80895,0 -1.52514,-0.20221 -2.14871,-0.60668 -0.60671,-0.40448 -1.07886,-0.94387 -1.41593,-1.61799 -0.33707,-0.69098 -0.5054,-1.44104 -0.5054,-2.24999 0,-0.82581 0.16833,-1.5928 0.5054,-2.30064 0.35392,-0.70783 0.85148,-1.28058 1.4919,-1.71876 0.64042,-0.45504 1.41536,-0.68264 2.32544,-0.68264 z"
         style="font-size:25.8865px;line-height:1.25;font-family:Sen;-inkscape-font-specification:'Sen, Normal';letter-spacing:0px;word-spacing:0px;fill:#004d99;fill-opacity:1;stroke-width:0.303477;stroke-miterlimit:4;stroke-dasharray:none"
         id="path942" />
    </clipPath>
    <clipPath
       id="clipPath963"
       clipPathUnits="userSpaceOnUse">
      <path
         clip-path="none"
         d="m 53.824636,225.65112 v 18.20147 h 2.07274 v -2.14871 c 0.438185,0.67413 1.028377,1.26381 1.769917,1.76941 0.758394,0.50559 1.617507,0.75861 2.578137,0.75861 1.09546,0 2.081594,-0.26996 2.95796,-0.80926 0.89322,-0.55616 1.600935,-1.32263 2.123384,-2.30011 0.539303,-0.97749 0.809255,-2.10707 0.809255,-3.38791 0,-1.39882 -0.269952,-2.60358 -0.809255,-3.61477 -0.522449,-1.01119 -1.2471,-1.78666 -2.174026,-2.32595 -0.910074,-0.55616 -1.946502,-0.83406 -3.109372,-0.83406 -0.724686,0 -1.466276,0.1768 -2.22467,0.53071 -0.74154,0.33707 -1.382027,0.80922 -1.92133,1.41594 v -7.25537 z m 106.554214,0 v 18.20147 h 2.07274 v -18.20147 z m 47.17232,0 v 7.25537 c -0.5393,-0.60672 -1.18826,-1.07887 -1.94665,-1.41594 -0.74154,-0.35391 -1.47467,-0.53071 -2.19935,-0.53071 -1.14602,0 -2.18245,0.2779 -3.10938,0.83406 -0.92692,0.53929 -1.66004,1.31476 -2.19934,2.32595 -0.52245,1.01119 -0.78394,2.21595 -0.78394,3.61477 0,1.28084 0.26149,2.41042 0.78394,3.38791 0.5393,0.97748 1.25548,1.74395 2.1487,2.30011 0.89322,0.5393 1.87884,0.80926 2.95744,0.80926 0.96064,0 1.8118,-0.25302 2.55334,-0.75861 0.75839,-0.5056 1.35706,-1.09528 1.79524,-1.76941 v 2.14871 h 2.07274 V 225.65112 Z M 98.418293,226.5105 c -1.16287,0 -2.233171,0.0593 -3.210655,0.17725 -0.977485,0.11797 -1.980557,0.26936 -3.008601,0.45475 v 16.33079 c 1.028044,0.18538 2.031116,0.33729 3.008601,0.45527 0.977484,0.11797 2.047785,0.17673 3.210655,0.17673 1.904407,0 3.513577,-0.38747 4.828127,-1.16272 1.3314,-0.77525 2.34295,-1.82015 3.03393,-3.13469 0.70783,-1.33141 1.06143,-2.83153 1.06143,-4.49999 0,-1.66846 -0.3536,-3.1601 -1.06143,-4.47466 -0.69098,-1.3314 -1.70253,-2.38477 -3.03393,-3.16001 -1.31455,-0.77525 -2.92372,-1.16272 -4.828127,-1.16272 z m -122.126909,0.40462 6.496761,10.3141 v 6.62337 h 2.452563 v -6.95203 l 6.4967615,-9.98544 h -2.7300655 l -5.030701,7.98815 -4.955253,-7.98815 z m 46.439025,0 v 2.14871 h 5.839436 v 14.7128 h 2.275313 v -14.7128 h 5.839955 v -2.14871 z m 75.687884,1.74408 c 1.36511,0 2.535997,0.29484 3.513477,0.8847 0.99434,0.57301 1.75286,1.36542 2.27532,2.3766 0.5393,0.99434 0.80925,2.1234 0.80925,3.38739 0,1.26399 -0.26995,2.40152 -0.80925,3.41271 -0.52246,0.99434 -1.28098,1.78622 -2.27532,2.37609 -0.97748,0.573 -2.148367,0.85989 -3.513477,0.85989 -0.606713,0 -1.25567,-0.0254 -1.946651,-0.076 -0.69098,-0.0506 -1.35687,-0.10932 -1.997292,-0.17674 V 228.9119 c 0.640422,-0.0842 1.306312,-0.143 1.997292,-0.17673 0.690981,-0.0505 1.339938,-0.076 1.946651,-0.076 z m -98.56607345,2.30064 c -1.28084255,0 -2.41837335,0.3033 -3.41271165,0.91002 -0.994338,0.60671 -1.7782691,1.41554 -2.3512774,2.42673 -0.5561555,1.01119 -0.8340577,2.11536 -0.8340577,3.31194 0,1.19657 0.2779022,2.30023 0.8340577,3.31142 0.5730083,0.99434 1.3569394,1.79521 2.3512774,2.40192 0.9943383,0.60672 2.1318691,0.91003 3.41271165,0.91003 1.28084235,0 2.41837365,-0.30331 3.41271165,-0.91003 0.9943383,-0.60671 1.7698005,-1.40758 2.3259573,-2.40192 0.5730082,-1.01119 0.8593773,-2.11485 0.8593773,-3.31142 0,-1.19658 -0.2863691,-2.30075 -0.8593773,-3.31194 -0.5561568,-1.01119 -1.331619,-1.82002 -2.3259573,-2.42673 -0.994338,-0.60672 -2.1318693,-0.91002 -3.41271165,-0.91002 z m 74.90395245,0 c -1.179724,0 -2.233086,0.3033 -3.160014,0.91002 -0.910071,0.60671 -1.626256,1.41554 -2.148705,2.42673 -0.522449,1.01119 -0.783415,2.11536 -0.783415,3.31194 0,1.19657 0.277902,2.30023 0.834059,3.31142 0.573008,0.99434 1.356423,1.79521 2.350759,2.40192 0.994339,0.60672 2.132389,0.91003 3.413228,0.91003 0.657276,0 1.280827,-0.10957 1.870689,-0.32867 0.606714,-0.20223 1.137113,-0.45525 1.592149,-0.7586 0.47189,-0.32022 0.826008,-0.62353 1.061953,-0.91003 l 0.02532,-2.24999 c -0.539302,0.55615 -1.205193,1.07014 -1.997294,1.54202 -0.792099,0.45505 -1.642742,0.68265 -2.552817,0.68265 -0.808952,0 -1.525653,-0.16833 -2.14922,-0.5054 -0.62357,-0.35391 -1.129081,-0.82606 -1.516706,-1.41593 -0.387622,-0.58986 -0.631653,-1.23882 -0.732771,-1.94665 h 9.707419 v -1.23868 c 0,-1.16287 -0.219141,-2.20777 -0.657325,-3.1347 -0.421331,-0.92692 -1.061818,-1.66005 -1.92133,-2.19935 -0.859513,-0.5393 -1.938282,-0.80873 -3.235979,-0.80873 z m 41.711668,0 c -1.28084,0 -2.41837,0.3033 -3.41271,0.91002 -0.99434,0.60671 -1.77828,1.41554 -2.35128,2.42673 -0.55615,1.01119 -0.83406,2.11536 -0.83406,3.31194 0,1.19657 0.27791,2.30023 0.83406,3.31142 0.573,0.99434 1.35694,1.79521 2.35128,2.40192 0.99434,0.60672 2.13187,0.91003 3.41271,0.91003 1.28084,0 2.41838,-0.30331 3.41271,-0.91003 0.99434,-0.60671 1.7698,-1.40758 2.32596,-2.40192 0.57301,-1.01119 0.85938,-2.11485 0.85938,-3.31142 -10e-6,-1.19658 -0.28637,-2.30075 -0.85938,-3.31194 -0.55616,-1.01119 -1.33162,-1.82002 -2.32596,-2.42673 -0.99433,-0.60672 -2.13187,-0.91002 -3.41271,-0.91002 z m 35.31567,0 c -0.57301,0 -1.12881,0.11804 -1.66811,0.35398 -0.52245,0.23595 -0.99461,0.53079 -1.41594,0.8847 -0.42133,0.33707 -0.76646,0.67425 -1.03611,1.01131 v -1.99729 h -2.07326 v 12.64005 h 2.07326 v -8.39277 c 0.5056,-0.65727 1.08681,-1.23053 1.74408,-1.71927 0.67413,-0.5056 1.34849,-0.75861 2.02261,-0.75861 0.99435,0 1.72747,0.28689 2.19935,0.85989 0.48875,0.57301 0.73278,1.40723 0.73278,2.50269 l 0.0253,7.50807 h 2.07325 v -7.71064 c 0,-1.16287 -0.21066,-2.12308 -0.632,-2.88148 -0.42133,-0.77524 -0.98612,-1.34851 -1.69395,-1.71927 -0.70783,-0.38763 -1.49177,-0.58136 -2.35128,-0.58136 z m 20.67936,0 c -1.28085,0 -2.4189,0.3033 -3.41323,0.91002 -0.99434,0.60671 -1.77775,1.41554 -2.35076,2.42673 -0.55616,1.01119 -0.83406,2.11536 -0.83406,3.31194 0,1.19657 0.2779,2.30023 0.83406,3.31142 0.57301,0.99434 1.35642,1.79521 2.35076,2.40192 0.99433,0.60672 2.13238,0.91003 3.41323,0.91003 1.28084,0 2.41837,-0.30331 3.41271,-0.91003 0.99434,-0.60671 1.76929,-1.40758 2.32544,-2.40192 0.57301,-1.01119 0.85938,-2.11485 0.85938,-3.31142 0,-1.19658 -0.28637,-2.30075 -0.85938,-3.31194 -0.55615,-1.01119 -1.3311,-1.82002 -2.32544,-2.42673 -0.99434,-0.60672 -2.13187,-0.91002 -3.41271,-0.91002 z m 15.21819,0 c -1.14602,0 -2.18244,0.2779 -3.10937,0.83406 -0.92693,0.53929 -1.66005,1.31476 -2.19935,2.32595 -0.52245,1.01119 -0.78393,2.21595 -0.78393,3.61477 0,1.28084 0.26148,2.41042 0.78393,3.38791 0.5393,0.97748 1.25549,1.74395 2.14871,2.30011 0.89322,0.5393 1.87935,0.80926 2.95796,0.80926 0.96063,0 1.81127,-0.25302 2.55281,-0.75861 0.75839,-0.5056 1.35706,-1.09528 1.79524,-1.76941 v 2.14871 h 2.07274 v -12.64005 h -2.07274 v 1.69395 c -0.5393,-0.60672 -1.18826,-1.07887 -1.94665,-1.41594 -0.74154,-0.35391 -1.47466,-0.53071 -2.19935,-0.53071 z m 31.44821,0 c -1.17972,0 -2.23308,0.3033 -3.16001,0.91002 -0.91007,0.60671 -1.62626,1.41554 -2.14871,2.42673 -0.52244,1.01119 -0.78393,2.11536 -0.78393,3.31194 0,1.19657 0.27791,2.30023 0.83406,3.31142 0.57301,0.99434 1.35694,1.79521 2.35128,2.40192 0.99434,0.60672 2.13187,0.91003 3.41271,0.91003 0.65727,0 1.28082,-0.10957 1.87068,-0.32867 0.60672,-0.20223 1.13764,-0.45525 1.59267,-0.7586 0.4719,-0.32022 0.82601,-0.62353 1.06195,-0.91003 l 0.0253,-2.24999 c -0.5393,0.55615 -1.2052,1.07014 -1.9973,1.54202 -0.7921,0.45505 -1.64326,0.68265 -2.55333,0.68265 -0.80895,0 -1.52514,-0.16833 -2.14871,-0.5054 -0.62356,-0.35391 -1.12907,-0.82606 -1.5167,-1.41593 -0.38762,-0.58986 -0.63217,-1.23882 -0.73329,-1.94665 h 9.70742 v -1.23868 c 0,-1.16287 -0.21914,-2.20777 -0.65733,-3.1347 -0.42132,-0.92692 -1.06181,-1.66005 -1.92133,-2.19935 -0.85951,-0.5393 -1.93776,-0.80873 -3.23546,-0.80873 z m 15.19287,0 c -0.72468,0 -1.4324,0.25301 -2.12338,0.75861 -0.69098,0.50559 -1.28066,1.17944 -1.7694,2.0221 v -2.52801 h -2.07326 v 12.64005 h 2.07326 v -7.63467 c 0.47189,-0.84267 0.96893,-1.56732 1.49138,-2.17403 0.53931,-0.60672 1.23855,-0.91002 2.09806,-0.91002 0.5393,0 1.07869,0.15986 1.61799,0.48007 v -2.4014 c -0.38762,-0.16854 -0.8259,-0.2527 -1.31465,-0.2527 z m -224.8384661,0.2527 v 7.48274 c 0,1.11231 0.2360772,2.07305 0.7079671,2.882 0.471889,0.80895 1.112374,1.4325 1.92133,1.87068 0.808953,0.43818 1.718873,0.65733 2.730063,0.65733 1.011193,0 1.921632,-0.21915 2.730585,-0.65733 0.808953,-0.43818 1.448922,-1.06173 1.920811,-1.87068 0.47189,-0.80895 0.707967,-1.76969 0.707967,-2.882 v -7.48274 h -2.148705 v 7.48274 c 0,1.09546 -0.328713,1.93815 -0.985986,2.52802 -0.640421,0.573 -1.382011,0.85937 -2.224672,0.85937 -0.842658,0 -1.592717,-0.28637 -2.24999,-0.85937 -0.640421,-0.58987 -0.960665,-1.43256 -0.960665,-2.52802 v -7.48274 z m 29.7041271,0 v 7.48274 c 0,1.11231 0.235561,2.07305 0.707451,2.882 0.47189,0.80895 1.112377,1.4325 1.92133,1.87068 0.808953,0.43818 1.718874,0.65733 2.730066,0.65733 1.011193,0 1.921629,-0.21915 2.730582,-0.65733 0.808953,-0.43818 1.449441,-1.06173 1.92133,-1.87068 0.47189,-0.80895 0.707451,-1.76969 0.707451,-2.882 v -7.48274 h -2.148705 v 7.48274 c 0,1.09546 -0.328713,1.93815 -0.985988,2.52802 -0.640419,0.573 -1.382009,0.85937 -2.22467,0.85937 -0.842658,0 -1.592201,-0.28637 -2.249474,-0.85937 -0.640421,-0.58987 -0.960665,-1.43256 -0.960665,-2.52802 v -7.48274 z m 85.521389,0 4.42403,12.64005 h 1.28932 l 3.46336,-8.924 3.46283,8.924 h 1.28933 l 4.42402,-12.64005 h -2.47737 l -2.80603,8.87336 -3.31142,-8.87336 h -1.16324 l -3.31143,8.87336 -2.80603,-8.87336 z m -124.85697045,1.7694 c 0.9100722,0 1.69400345,0.21914 2.35127795,0.65732 0.6741276,0.42133 1.1881077,0.98612 1.5420247,1.69396 0.3707702,0.69098 0.5560383,1.4495 0.5560383,2.27531 0,0.80895 -0.1852681,1.56696 -0.5560383,2.27479 -0.353917,0.69098 -0.8678971,1.25578 -1.5420247,1.69396 -0.6572745,0.42133 -1.44120575,0.632 -2.35127795,0.632 -0.89321905,0 -1.67663335,-0.21067 -2.35076095,-0.632 -0.6741276,-0.43818 -1.196576,-1.00298 -1.5673461,-1.69396 -0.353917,-0.70783 -0.5312336,-1.46584 -0.5312336,-2.27479 0,-0.82581 0.1773166,-1.58433 0.5312336,-2.27531 0.3707701,-0.70784 0.8932185,-1.27263 1.5673461,-1.69396 0.6741276,-0.43818 1.4575419,-0.65732 2.35076095,-0.65732 z m 74.90395245,0 c 0.589862,0 1.154652,0.13498 1.693955,0.40462 0.5393,0.2528 0.994005,0.64028 1.364774,1.16272 0.387625,0.52246 0.623702,1.19681 0.707967,2.02262 h -7.609353 c 0.168531,-0.99434 0.589878,-1.83703 1.264004,-2.52801 0.674127,-0.70783 1.533755,-1.06195 2.578653,-1.06195 z m 41.711668,0 c 0.91007,0 1.694,0.21914 2.35127,0.65732 0.67413,0.42133 1.18811,0.98612 1.54203,1.69396 0.37077,0.69098 0.55604,1.4495 0.55604,2.27531 0,0.80895 -0.18527,1.56696 -0.55604,2.27479 -0.35392,0.69098 -0.8679,1.25578 -1.54203,1.69396 -0.65727,0.42133 -1.4412,0.632 -2.35127,0.632 -0.89322,0 -1.67664,-0.21067 -2.35076,-0.632 -0.67413,-0.43818 -1.19658,-1.00298 -1.56735,-1.69396 -0.35392,-0.70783 -0.53123,-1.46584 -0.53123,-2.27479 0,-0.82581 0.17731,-1.58433 0.53123,-2.27531 0.37077,-0.70784 0.89322,-1.27263 1.56735,-1.69396 0.67412,-0.43818 1.45754,-0.65732 2.35076,-0.65732 z m 55.99503,0 c 0.91007,0 1.69349,0.21914 2.35076,0.65732 0.67413,0.42133 1.18811,0.98612 1.54202,1.69396 0.37078,0.69098 0.55604,1.4495 0.55604,2.27531 0,0.80895 -0.18526,1.56696 -0.55604,2.27479 -0.35391,0.69098 -0.86789,1.25578 -1.54202,1.69396 -0.65727,0.42133 -1.44069,0.632 -2.35076,0.632 -0.89322,0 -1.67715,-0.21067 -2.35128,-0.632 -0.67413,-0.43818 -1.19657,-1.00298 -1.56735,-1.69396 -0.35391,-0.70783 -0.53071,-1.46584 -0.53071,-2.27479 0,-0.82581 0.1768,-1.58433 0.53071,-2.27531 0.37078,-0.70784 0.89322,-1.27263 1.56735,-1.69396 0.67413,-0.43818 1.45806,-0.65732 2.35128,-0.65732 z m 15.5975,0 c 0.77524,0 1.45755,0.18578 2.04742,0.55655 0.60671,0.37077 1.1715,0.88475 1.69395,1.54203 l 0.0253,2.42672 c 0.0169,0.89322 -0.152,1.70204 -0.50591,2.42673 -0.35392,0.70783 -0.83403,1.26416 -1.44074,1.66863 -0.60671,0.40448 -1.29749,0.60668 -2.07274,0.60668 -0.80896,0 -1.52565,-0.2022 -2.14922,-0.60668 -0.60672,-0.40447 -1.07836,-0.94386 -1.41542,-1.61799 -0.33707,-0.69098 -0.5054,-1.44104 -0.5054,-2.24999 0,-0.82581 0.16833,-1.59229 0.5054,-2.30012 0.35391,-0.72469 0.85096,-1.31488 1.49138,-1.76992 0.64043,-0.45503 1.41589,-0.68264 2.32596,-0.68264 z m 31.0689,0 c 0.58986,0 1.15414,0.13498 1.69344,0.40462 0.5393,0.2528 0.99452,0.64028 1.36529,1.16272 0.38762,0.52246 0.6237,1.19681 0.70797,2.02262 h -7.60936 c 0.16854,-0.99434 0.58988,-1.83703 1.26401,-2.52801 0.67413,-0.70783 1.53375,-1.06195 2.57865,-1.06195 z m -159.465198,0.0253 c 0.910071,0 1.685536,0.22761 2.325954,0.68264 0.640422,0.43818 1.128999,1.01991 1.466062,1.7446 0.353917,0.70783 0.530717,1.47431 0.530717,2.30012 0,0.80895 -0.168333,1.55054 -0.505396,2.22467 -0.337064,0.67412 -0.808702,1.21351 -1.415418,1.61799 -0.606713,0.40448 -1.323414,0.60668 -2.149221,0.60668 -0.758394,0 -1.449176,-0.2022 -2.072743,-0.60668 -0.606714,-0.40448 -1.086821,-0.9608 -1.440738,-1.66863 -0.337064,-0.70784 -0.505913,-1.50819 -0.505913,-2.40141 l 0.02532,-2.42672 c 0.539303,-0.65728 1.104093,-1.16279 1.693955,-1.51671 0.589859,-0.37076 1.272172,-0.55655 2.047421,-0.55655 z m 144.120398,0.0253 c 0.77525,0 1.45756,0.17732 2.04742,0.53123 0.60672,0.35392 1.17151,0.85943 1.69396,1.5167 l 0.0253,2.42673 c 0.0168,0.89322 -0.152,1.70204 -0.50592,2.42672 -0.35392,0.70784 -0.83402,1.26416 -1.44073,1.66864 -0.60672,0.40448 -1.29802,0.60668 -2.07327,0.60668 -0.80895,0 -1.52513,-0.2022 -2.1487,-0.60668 -0.60671,-0.40448 -1.07836,-0.94386 -1.41542,-1.61799 -0.33707,-0.69098 -0.50591,-1.44104 -0.50591,-2.24999 0,-0.82581 0.16884,-1.59229 0.50591,-2.30012 0.35391,-0.70784 0.85096,-1.2811 1.49138,-1.71928 0.64042,-0.45503 1.41588,-0.68264 2.32596,-0.68264 z"
         style="font-size:25.8865px;line-height:1.25;font-family:Sen;-inkscape-font-specification:'Sen, Normal';letter-spacing:0px;word-spacing:0px;fill:#004d99;fill-opacity:1;stroke-width:0.264583"
         id="path965" />
    </clipPath>
    <clipPath
       id="clipPath1081"
       clipPathUnits="userSpaceOnUse">
      <path
         d="m 41.423843,227.10581 v 22.53041 h 2.566249 v -2.6603 c 0.542401,0.83445 1.27214,1.56471 2.190049,2.19056 0.938768,0.62585 2.002946,0.93896 3.192052,0.93896 1.356,0 2.576475,-0.33392 3.661275,-1.00149 1.105662,-0.68843 1.981557,-1.6374 2.628265,-2.84737 0.667568,-1.20997 1.001488,-2.60806 1.001488,-4.19354 0,-1.73151 -0.33392,-3.22298 -1.001488,-4.47466 -0.646708,-1.2517 -1.54341,-2.21133 -2.690794,-2.8789 -1.126522,-0.68843 -2.409931,-1.0325 -3.849375,-1.0325 -0.897046,0 -1.814552,0.21924 -2.75332,0.65733 -0.917909,0.41723 -1.710582,1.00133 -2.378152,1.75235 v -8.98085 z m 131.896857,0 v 22.53041 h 2.56625 v -22.53041 z m 58.39178,0 v 8.98085 c -0.66756,-0.75102 -1.4709,-1.33512 -2.40967,-1.75235 -0.91791,-0.43809 -1.82526,-0.65733 -2.72231,-0.65733 -1.41859,0 -2.70148,0.34407 -3.84886,1.0325 -1.14739,0.66757 -2.05527,1.6272 -2.72283,2.8789 -0.64671,1.25168 -0.96997,2.74315 -0.96997,4.47466 0,1.58548 0.32326,2.98357 0.96997,4.19354 0.66756,1.20997 1.55412,2.15894 2.65978,2.84737 1.10566,0.66757 2.32614,1.00149 3.66128,1.00149 1.1891,0 2.24262,-0.31311 3.16053,-0.93896 0.93876,-0.62585 1.67968,-1.35611 2.22208,-2.19056 v 2.6603 h 2.56574 v -22.53041 z m -135.088909,1.0635 c -1.439444,0 -2.764464,0.0731 -3.974433,0.21911 -1.209968,0.14603 -2.450735,0.33379 -3.723288,0.56327 v 20.21479 c 1.272553,0.22948 2.51332,0.41725 3.723288,0.56327 1.209969,0.14604 2.534989,0.21911 3.974433,0.21911 2.357351,0 4.349699,-0.47956 5.976899,-1.43919 1.64806,-0.95963 2.89948,-2.25318 3.75481,-3.88038 0.87618,-1.64806 1.31465,-3.50491 1.31465,-5.5702 0,-2.06529 -0.43847,-3.91149 -1.31465,-5.53868 -0.85533,-1.64806 -2.10675,-2.95176 -3.75481,-3.91139 -1.6272,-0.95963 -3.619548,-1.43971 -5.976899,-1.43971 z m -151.173198,0.50075 8.042403,12.76717 v 8.19899 h 3.034957 v -8.60568 l 8.042403,-12.36048 h -3.379639 l -6.22701,9.88828 -6.133475,-9.88828 z m 57.483829,0 v 2.65978 h 7.228499 v 18.21233 h 2.816365 v -18.21233 h 7.228501 v -2.65978 z m 93.689369,2.15904 v 5.3e-4 c 1.689783,0 3.139641,0.36487 4.349609,1.09502 1.23083,0.70929 2.16966,1.68973 2.81636,2.94142 0.66757,1.23083 1.00149,2.62842 1.00149,4.19303 0,1.56462 -0.33392,2.97286 -1.00149,4.22455 -0.6467,1.23083 -1.58553,2.21127 -2.81636,2.94142 -1.209968,0.70929 -2.659826,1.06402 -4.349609,1.06402 -0.751014,0 -1.55435,-0.0314 -2.409671,-0.094 -0.855324,-0.0626 -1.679461,-0.13515 -2.472201,-0.21859 v -15.83418 c 0.79274,-0.1043 1.616877,-0.17738 2.472201,-0.21911 0.855321,-0.0626 1.658657,-0.0941 2.409671,-0.0941 z m -122.00857,2.84788 c -1.585476,0 -2.993719,0.37554 -4.224549,1.12655 -1.23083,0.75102 -2.201124,1.75227 -2.910416,3.00395 -0.68843,1.2517 -1.032495,2.61833 -1.032495,4.09949 0,1.48117 0.344065,2.84728 1.032495,4.09898 0.709292,1.23083 1.679586,2.22193 2.910416,2.97294 1.23083,0.75102 2.639073,1.12655 4.224549,1.12655 1.585476,0 2.993718,-0.37553 4.224548,-1.12655 1.23083,-0.75101 2.190464,-1.74211 2.878894,-2.97294 0.709292,-1.2517 1.063501,-2.61781 1.063501,-4.09898 0,-1.48116 -0.354209,-2.84779 -1.063501,-4.09949 -0.68843,-1.25168 -1.648064,-2.25293 -2.878894,-3.00395 -1.23083,-0.75101 -2.639072,-1.12655 -4.224548,-1.12655 z m 92.718886,0 c -1.460306,0 -2.764004,0.37554 -3.911388,1.12655 -1.126522,0.75102 -2.013079,1.75227 -2.659787,3.00395 -0.646708,1.2517 -0.969965,2.61833 -0.969965,4.09949 0,1.48117 0.344064,2.84728 1.032494,4.09898 0.709292,1.23083 1.679069,2.22193 2.9099,2.97294 1.230829,0.75102 2.639071,1.12655 4.224547,1.12655 0.813601,0 1.585468,-0.13549 2.315623,-0.40669 0.751014,-0.25035 1.408194,-0.56346 1.971455,-0.93897 0.584123,-0.39636 1.022069,-0.77189 1.314132,-1.12654 l 0.03152,-2.78484 c -0.66757,0.68842 -1.49171,1.3248 -2.472201,1.90892 -0.980493,0.56326 -2.034008,0.84491 -3.160532,0.84491 -1.001353,0 -1.887908,-0.20908 -2.659785,-0.62631 -0.771877,-0.4381 -1.39759,-1.0222 -1.877404,-1.75235 -0.479816,-0.73016 -0.78227,-1.53298 -0.907439,-2.40916 h 12.016322 v -1.53324 c 0,-1.43944 -0.271505,-2.73299 -0.813906,-3.88038 -0.521536,-1.14738 -1.314212,-2.05474 -2.378149,-2.72232 -1.063937,-0.66756 -2.399101,-1.00149 -4.00544,-1.00149 z m 51.632503,0 c -1.58547,0 -2.99371,0.37554 -4.22454,1.12655 -1.23083,0.75102 -2.20113,1.75227 -2.91042,3.00395 -0.68843,1.2517 -1.0325,2.61833 -1.0325,4.09949 0,1.48117 0.34407,2.84728 1.0325,4.09898 0.70929,1.23083 1.67959,2.22193 2.91042,2.97294 1.23083,0.75102 2.63907,1.12655 4.22454,1.12655 1.58548,0 2.99321,-0.37553 4.22404,-1.12655 1.23083,-0.75101 2.19046,-1.74211 2.87889,-2.97294 0.70929,-1.2517 1.06402,-2.61781 1.06402,-4.09898 0,-1.48116 -0.35473,-2.84779 -1.06402,-4.09949 -0.68843,-1.25168 -1.64806,-2.25293 -2.87889,-3.00395 -1.23083,-0.75101 -2.63856,-1.12655 -4.22404,-1.12655 z m 43.71516,0 c -0.70929,0 -1.39794,0.14616 -2.0655,0.43822 -0.64671,0.29207 -1.23081,0.65694 -1.75235,1.09502 -0.52154,0.41724 -0.94883,0.83438 -1.28261,1.25161 v -2.4722 h -2.56625 v 15.64659 h 2.56625 v -10.38903 c 0.62584,-0.8136 1.34544,-1.52305 2.15904,-2.12804 0.83447,-0.62585 1.66875,-0.93896 2.50321,-0.93896 1.23082,0 2.13819,0.35473 2.72231,1.06402 0.60498,0.70929 0.90744,1.742 0.90744,3.098 l 0.0315,9.29401 h 2.56574 v -9.54412 c 0,-1.43945 -0.26033,-2.62898 -0.78187,-3.56774 -0.52153,-0.95964 -1.22084,-1.66857 -2.09703,-2.12752 -0.87618,-0.47982 -1.84596,-0.71986 -2.9099,-0.71986 z m 25.59689,0 c -1.58548,0 -2.9932,0.37554 -4.22403,1.12655 -1.23083,0.75102 -2.20112,1.75227 -2.91042,3.00395 -0.68842,1.2517 -1.03249,2.61833 -1.03249,4.09949 0,1.48117 0.34407,2.84728 1.03249,4.09898 0.7093,1.23083 1.67959,2.22193 2.91042,2.97294 1.23083,0.75102 2.63855,1.12655 4.22403,1.12655 1.58547,0 2.99372,-0.37553 4.22455,-1.12655 1.23083,-0.75101 2.19047,-1.74211 2.87889,-2.97294 0.7093,-1.2517 1.06402,-2.61781 1.06402,-4.09898 0,-1.48116 -0.35472,-2.84779 -1.06402,-4.09949 -0.68842,-1.25168 -1.64806,-2.25293 -2.87889,-3.00395 -1.23083,-0.75101 -2.63908,-1.12655 -4.22455,-1.12655 z m 18.83813,0 c -1.41858,0 -2.70148,0.34407 -3.84886,1.0325 -1.14739,0.66757 -2.05475,1.6272 -2.72232,2.8789 -0.6467,1.25168 -0.97048,2.74315 -0.97048,4.47466 0,1.58548 0.32378,2.98357 0.97048,4.19354 0.66757,1.20997 1.55412,2.15894 2.65979,2.84737 1.10566,0.66757 2.32614,1.00149 3.66128,1.00149 1.1891,0 2.24262,-0.31311 3.16053,-0.93896 0.93877,-0.62585 1.67917,-1.35611 2.22156,-2.19056 v 2.6603 h 2.56574 v -15.64659 h -2.56574 v 2.09703 c -0.66757,-0.75102 -1.4709,-1.33512 -2.40967,-1.75235 -0.9179,-0.43809 -1.82526,-0.65733 -2.72231,-0.65733 z m 38.92734,0 c -1.46032,0 -2.764,0.37554 -3.91139,1.12655 -1.12653,0.75102 -2.01308,1.75227 -2.65979,3.00395 -0.6467,1.2517 -0.96996,2.61833 -0.96996,4.09949 0,1.48117 0.34406,2.84728 1.03249,4.09898 0.7093,1.23083 1.67959,2.22193 2.91042,2.97294 1.23084,0.75102 2.63908,1.12655 4.22455,1.12655 0.81359,0 1.58546,-0.13549 2.3156,-0.40669 0.75102,-0.25035 1.40822,-0.56346 1.97147,-0.93897 0.58412,-0.39636 1.02208,-0.77189 1.31413,-1.12654 l 0.031,-2.78484 c -0.66757,0.68842 -1.49119,1.3248 -2.47169,1.90892 -0.98049,0.56326 -2.03401,0.84491 -3.16052,0.84491 -1.00137,0 -1.88844,-0.20908 -2.66031,-0.62631 -0.77187,-0.4381 -1.39759,-1.0222 -1.8774,-1.75235 -0.47982,-0.73016 -0.78227,-1.53298 -0.90744,-2.40916 h 12.01631 v -1.53324 c 0,-1.43944 -0.27098,-2.73299 -0.81338,-3.88038 -0.52155,-1.14738 -1.31474,-2.05474 -2.37866,-2.72232 -1.06394,-0.66756 -2.39858,-1.00149 -4.00492,-1.00149 z m 18.80711,0 c -0.89705,0 -1.77345,0.31312 -2.62877,0.93897 -0.85532,0.62584 -1.58557,1.46013 -2.19057,2.5032 v -3.12952 h -2.56574 v 15.64659 h 2.56574 v -9.45059 c 0.58413,-1.04308 1.19971,-1.93978 1.8464,-2.69079 0.66757,-0.75101 1.53331,-1.12655 2.59726,-1.12655 0.66757,0 1.3349,0.19792 2.00247,0.59428 v -2.97294 c -0.47982,-0.20862 -1.0218,-0.31265 -1.62679,-0.31265 z m -278.31375,0.31265 v 9.263 c 0,1.37686 0.291793,2.56587 0.875916,3.56722 0.584122,1.00135 1.377313,1.77322 2.378666,2.31562 1.0013532,0.5424 2.1274302,0.81339 3.3791218,0.81339 1.2516913,0 2.3782853,-0.27099 3.3796385,-0.81339 1.0013531,-0.5424 1.7940268,-1.31427 2.3781495,-2.31562 0.58412249,-1.00135 0.8764323,-2.19036 0.8764323,-3.56722 v -9.263 H -2.854592 v 9.263 c 0,1.356 -0.4069977,2.39885 -1.2205972,3.12901 -0.792738,0.70929 -1.7107609,1.06401 -2.753837,1.06401 -1.0430764,0 -1.9712435,-0.35472 -2.784843,-1.06401 -0.7927378,-0.73016 -1.1890748,-1.77301 -1.1890748,-3.12901 v -9.263 z m 36.768298,0 v 9.263 c 0,1.37686 0.292309,2.56587 0.876432,3.56722 0.584123,1.00135 1.376797,1.77322 2.378149,2.31562 1.001353,0.5424 2.127949,0.81339 3.379639,0.81339 1.251691,0 2.378284,-0.27099 3.37964,-0.81339 1.001352,-0.5424 1.794026,-1.31427 2.378149,-2.31562 0.584123,-1.00135 0.875913,-2.19036 0.875913,-3.56722 v -9.263 h -2.659784 v 9.263 c 0,1.356 -0.406998,2.39885 -1.220597,3.12901 -0.79274,0.70929 -1.710246,1.06401 -2.753321,1.06401 -1.043077,0 -1.971759,-0.35472 -2.785358,-1.06401 -0.792739,-0.73016 -1.189077,-1.77301 -1.189077,-3.12901 v -9.263 z m 105.861752,0 5.47615,15.64659 h 1.59629 l 4.28708,-11.04636 4.28656,11.04636 h 1.59628 l 5.47615,-15.64659 h -3.067 l -3.47317,10.98382 -4.09949,-10.98382 h -1.43919 l -4.09949,10.98382 -3.47317,-10.98382 z m -154.552319,2.19056 c 1.126522,0 2.0963,0.27151 2.9099,0.8139 0.83446,0.52155 1.470835,1.22033 1.908927,2.09652 0.458953,0.85532 0.68833,1.79415 0.68833,2.81636 0,1.00136 -0.229377,1.94018 -0.68833,2.81637 -0.438092,0.85532 -1.074467,1.55411 -1.908927,2.09651 -0.8136,0.52154 -1.783378,0.78238 -2.9099,0.78238 -1.105661,0 -2.075956,-0.26084 -2.910417,-0.78238 -0.834461,-0.5424 -1.48098,-1.24119 -1.939933,-2.09651 -0.438092,-0.87619 -0.657324,-1.81501 -0.657324,-2.81637 0,-1.02221 0.219232,-1.96104 0.657324,-2.81636 0.458953,-0.87619 1.105472,-1.57497 1.939933,-2.09652 0.834461,-0.54239 1.804756,-0.8139 2.910417,-0.8139 z m 92.718886,0 c 0.730152,0 1.428944,0.16696 2.096514,0.50075 0.667567,0.31292 1.230865,0.79299 1.689819,1.4397 0.479814,0.64671 0.772123,1.48099 0.876433,2.50321 h -9.419064 c 0.208614,-1.23084 0.730301,-2.27369 1.564762,-3.12901 0.834461,-0.87619 1.898121,-1.31465 3.191536,-1.31465 z m 51.632503,0 c 1.12653,0 2.09631,0.27151 2.9099,0.8139 0.83447,0.52155 1.47084,1.22033 1.90893,2.09652 0.45895,0.85532 0.68833,1.79415 0.68833,2.81636 0,1.00136 -0.22938,1.94018 -0.68833,2.81637 -0.43809,0.85532 -1.07446,1.55411 -1.90893,2.09651 -0.81359,0.52154 -1.78337,0.78238 -2.9099,0.78238 -1.10566,0 -2.07595,-0.26084 -2.91041,-0.78238 -0.83446,-0.5424 -1.48098,-1.24119 -1.93994,-2.09651 -0.43809,-0.87619 -0.65732,-1.81501 -0.65732,-2.81637 0,-1.02221 0.21923,-1.96104 0.65732,-2.81636 0.45896,-0.87619 1.10548,-1.57497 1.93994,-2.09652 0.83446,-0.54239 1.80475,-0.8139 2.91041,-0.8139 z m 69.31205,0 c 1.12652,0 2.09682,0.27151 2.91042,0.8139 0.83446,0.52155 1.47083,1.22033 1.90893,2.09652 0.45895,0.85532 0.68833,1.79415 0.68833,2.81636 0,1.00136 -0.22938,1.94018 -0.68833,2.81637 -0.4381,0.85532 -1.07447,1.55411 -1.90893,2.09651 -0.8136,0.52154 -1.7839,0.78238 -2.91042,0.78238 -1.10567,0 -2.07544,-0.26084 -2.9099,-0.78238 -0.83446,-0.5424 -1.48149,-1.24119 -1.94045,-2.09651 -0.43809,-0.87619 -0.65681,-1.81501 -0.65681,-2.81637 0,-1.02221 0.21872,-1.96104 0.65681,-2.81636 0.45896,-0.87619 1.10599,-1.57497 1.94045,-2.09652 0.83446,-0.54239 1.80423,-0.8139 2.9099,-0.8139 z m 19.30735,0 c 0.95963,0 1.80458,0.22938 2.53473,0.68833 0.75101,0.45895 1.44981,1.09533 2.09651,1.90893 l 0.0315,3.00395 c 0.0208,1.10566 -0.1877,2.10742 -0.6258,3.00447 -0.43809,0.87618 -1.03285,1.56431 -1.78387,2.06499 -0.75101,0.50068 -1.6061,0.75137 -2.56573,0.75137 -1.00136,0 -1.88791,-0.25069 -2.65979,-0.75137 -0.75101,-0.50068 -1.33511,-1.16801 -1.75235,-2.00246 -0.41723,-0.85533 -0.6258,-1.78401 -0.6258,-2.78536 0,-1.02222 0.20857,-1.9712 0.6258,-2.84737 0.4381,-0.89705 1.05315,-1.62731 1.84589,-2.19057 0.79274,-0.56327 1.75237,-0.84491 2.87889,-0.84491 z m 38.45864,0 c 0.73015,0 1.42894,0.16696 2.09651,0.50075 0.66757,0.31292 1.23087,0.79299 1.68981,1.4397 0.47983,0.64671 0.77161,1.48099 0.87591,2.50321 h -9.41905 c 0.20861,-1.23084 0.7303,-2.27369 1.56476,-3.12901 0.83447,-0.87619 1.89865,-1.31465 3.19206,-1.31465 z m -197.392089,0.0315 c 1.126522,0 2.086155,0.28165 2.878894,0.84491 0.792737,0.5424 1.397646,1.262 1.814875,2.15905 0.438092,0.87617 0.657326,1.82515 0.657326,2.84737 0,1.00135 -0.208571,1.91937 -0.625803,2.75383 -0.41723,0.83447 -1.001332,1.50231 -1.752346,2.00298 -0.751015,0.50068 -1.637573,0.75086 -2.659788,0.75086 -0.938768,0 -1.794375,-0.25018 -2.566252,-0.75086 -0.751014,-0.50067 -1.34526,-1.18932 -1.783352,-2.06551 -0.417232,-0.87618 -0.625803,-1.86728 -0.625803,-2.97294 l 0.03101,-3.00395 c 0.667571,-0.8136 1.366362,-1.43932 2.096514,-1.87741 0.730152,-0.45895 1.575099,-0.68833 2.534729,-0.68833 z m 178.397379,0.031 c 0.95963,0 1.80457,0.21923 2.53473,0.65732 0.75101,0.43809 1.4498,1.06381 2.09651,1.87741 l 0.0315,3.00395 c 0.0208,1.10566 -0.18771,2.10742 -0.6258,3.00447 -0.43809,0.87618 -1.03285,1.56431 -1.78387,2.06499 -0.75102,0.50068 -1.6061,0.75137 -2.56573,0.75137 -1.00136,0 -1.88843,-0.25069 -2.66031,-0.75137 -0.75101,-0.50068 -1.33512,-1.16801 -1.75234,-2.00246 -0.41724,-0.85533 -0.62581,-1.78401 -0.62581,-2.78536 0,-1.02222 0.20857,-1.9712 0.62581,-2.84737 0.43808,-0.87619 1.05366,-1.58564 1.8464,-2.12804 0.79273,-0.56326 1.75237,-0.84491 2.87889,-0.84491 z"
         style="font-size:32.0433px;line-height:1.25;font-family:Sen;-inkscape-font-specification:'Sen, Normal';letter-spacing:0px;word-spacing:0px;fill:#004d99;fill-opacity:1;stroke-width:0.327512"
         id="path1083" />
    </clipPath>
  </defs>
  <sodipodi:namedview
     id="base"
     pagecolor="#ffffff"
     bordercolor="#666666"
     borderopacity="1.0"
     inkscape:pageopacity="0.0"
     inkscape:pageshadow="2"
     inkscape:zoom="0.70710678"
     inkscape:cx="512.61424"
     inkscape:cy="556.36122"
     inkscape:document-units="px"
     inkscape:current-layer="layer1"
     showgrid="false"
     inkscape:snap-smooth-nodes="false"
     inkscape:object-paths="true"
     inkscape:window-width="1920"
     inkscape:window-height="1027"
     inkscape:window-x="0"
     inkscape:window-y="0"
     inkscape:window-maximized="1"
     showguides="true"
     inkscape:guide-bbox="true"
     fit-margin-top="0"
     fit-margin-left="0"
     fit-margin-right="0"
     fit-margin-bottom="0"
     inkscape:document-rotation="0"
     showborder="false"
     inkscape:snap-global="false" />
  <metadata
     id="metadata5">
    <rdf:RDF>
      <cc:Work
         rdf:about="">
        <dc:format>image/svg+xml</dc:format>
        <dc:type
           rdf:resource="http://purl.org/dc/dcmitype/StillImage" />
        <dc:title />
      </cc:Work>
    </rdf:RDF>
  </metadata>
  <g
     inkscape:label="Layer 1"
     inkscape:groupmode="layer"
     id="layer1"
     transform="translate(54.549627,-69.428099)">
    <g
       id="g977"
       transform="matrix(1.6488296,0,0,1.6488296,5.879759,81.568356)">
      <path
         class="st0"
         d="M 118.9,13.3 C 117.5,8.1 113.4,4 108.2,2.6 98.7,0 60.7,0 60.7,0 60.7,0 22.7,0 13.2,2.5 8.1,3.9 3.9,8.1 2.5,13.3 0,22.8 0,42.5 0,42.5 0,42.5 0,62.3 2.5,71.7 3.9,76.9 8,81 13.2,82.4 22.8,85 60.7,85 60.7,85 c 0,0 38,0 47.5,-2.5 5.2,-1.4 9.3,-5.5 10.7,-10.7 2.5,-9.5 2.5,-29.2 2.5,-29.2 0,0 0.1,-19.8 -2.5,-29.3 z"
         id="path973"
         inkscape:connector-curvature="0"
         style="fill:#ff0000" />
      <polygon
         class="st1"
         points="80.2,42.5 48.6,24.3 48.6,60.7 "
         id="polygon975"
         style="fill:#ffffff" />
    </g>
    <path
       style="opacity:1;fill:url(#linearGradient1050);fill-opacity:1;fill-rule:nonzero;stroke:#000000;stroke-width:0;stroke-linecap:butt;stroke-linejoin:round;stroke-miterlimit:4;stroke-dasharray:none;stroke-dashoffset:64.47;stroke-opacity:1;paint-order:markers fill stroke"
       d="M 92.682134,69.485623 C 107.52432,94.998986 117.03648,127.41351 119.87461,162.14918 H 86.014025 l 53.426915,53.43239 53.43236,-53.43239 h -43.90654 c -2.11351,-32.64112 -10.59349,-64.748844 -19.68126,-91.787637 -0.17014,-0.506399 -0.85125,-0.795612 -1.38509,-0.805151 -12.32349,-0.220352 -23.47884,-0.05295 -35.218276,-0.0741 z"
       id="rect850"
       inkscape:connector-curvature="0"
       sodipodi:nodetypes="ccccccssc" />
    <path
       style="color:#000000;font-style:normal;font-variant:normal;font-weight:normal;font-stretch:normal;font-size:medium;line-height:normal;font-family:sans-serif;font-variant-ligatures:normal;font-variant-position:normal;font-variant-caps:normal;font-variant-numeric:normal;font-variant-alternates:normal;font-feature-settings:normal;text-indent:0;text-align:start;text-decoration:none;text-decoration-line:none;text-decoration-style:solid;text-decoration-color:#000000;letter-spacing:normal;word-spacing:normal;text-transform:none;writing-mode:lr-tb;direction:ltr;text-orientation:mixed;dominant-baseline:auto;baseline-shift:baseline;text-anchor:start;white-space:normal;shape-padding:0;clip-rule:nonzero;display:inline;overflow:visible;visibility:visible;opacity:1;isolation:auto;mix-blend-mode:normal;color-interpolation:sRGB;color-interpolation-filters:linearRGB;solid-color:#000000;solid-opacity:1;vector-effect:none;fill:url(#linearGradient1066);fill-opacity:1;fill-rule:nonzero;stroke:none;stroke-width:15.4827;stroke-linecap:butt;stroke-linejoin:miter;stroke-miterlimit:4;stroke-dasharray:none;stroke-dashoffset:64.47;stroke-opacity:1;paint-order:markers fill stroke;color-rendering:auto;image-rendering:auto;shape-rendering:auto;text-rendering:auto;enable-background:accumulate"
       d="m 86.012869,162.09876 v 11.00521 l 42.488721,42.47676 h 10.94124 z"
       id="path880"
       inkscape:connector-curvature="0" />
    <path
       style="color:#000000;font-style:normal;font-variant:normal;font-weight:normal;font-stretch:normal;font-size:medium;line-height:normal;font-family:sans-serif;font-variant-ligatures:normal;font-variant-position:normal;font-variant-caps:normal;font-variant-numeric:normal;font-variant-alternates:normal;font-feature-settings:normal;text-indent:0;text-align:start;text-decoration:none;text-decoration-line:none;text-decoration-style:solid;text-decoration-color:#000000;letter-spacing:normal;word-spacing:normal;text-transform:none;writing-mode:lr-tb;direction:ltr;text-orientation:mixed;dominant-baseline:auto;baseline-shift:baseline;text-anchor:start;white-space:normal;shape-padding:0;clip-rule:nonzero;display:inline;overflow:visible;visibility:visible;opacity:0.509;isolation:auto;mix-blend-mode:normal;color-interpolation:sRGB;color-interpolation-filters:linearRGB;solid-color:#000000;solid-opacity:1;vector-effect:none;fill:#000000;fill-opacity:1;fill-rule:nonzero;stroke:none;stroke-width:0;stroke-linecap:square;stroke-linejoin:miter;stroke-miterlimit:4;stroke-dasharray:none;stroke-dashoffset:64.47;stroke-opacity:1;paint-order:markers fill stroke;color-rendering:auto;image-rendering:auto;shape-rendering:auto;text-rendering:auto;enable-background:accumulate"
       d="m 88.81363,69.428099 0.04026,0.06359 c 16.36354,24.255317 26.93667,57.054081 29.86195,92.653181 v 0.0423 h 5.85409 l -0.006,-0.053 C 121.85545,127.24313 112.21579,94.722556 97.093217,69.461029 l -0.0097,-0.02115 z"
       id="path993"
       inkscape:connector-curvature="0" />
    <path
       style="color:#000000;font-style:normal;font-variant:normal;font-weight:normal;font-stretch:normal;font-size:medium;line-height:normal;font-family:sans-serif;font-variant-ligatures:normal;font-variant-position:normal;font-variant-caps:normal;font-variant-numeric:normal;font-variant-alternates:normal;font-feature-settings:normal;text-indent:0;text-align:start;text-decoration:none;text-decoration-line:none;text-decoration-style:solid;text-decoration-color:#000000;letter-spacing:normal;word-spacing:normal;text-transform:none;writing-mode:lr-tb;direction:ltr;text-orientation:mixed;dominant-baseline:auto;baseline-shift:baseline;text-anchor:start;white-space:normal;shape-padding:0;clip-rule:nonzero;display:inline;overflow:visible;visibility:visible;opacity:1;isolation:auto;mix-blend-mode:normal;color-interpolation:sRGB;color-interpolation-filters:linearRGB;solid-color:#000000;solid-opacity:1;vector-effect:none;fill:url(#linearGradient1082);fill-opacity:1;fill-rule:nonzero;stroke:none;stroke-width:0;stroke-linecap:square;stroke-linejoin:miter;stroke-miterlimit:4;stroke-dasharray:none;stroke-dashoffset:64.47;stroke-opacity:1;paint-order:markers fill stroke;color-rendering:auto;image-rendering:auto;shape-rendering:auto;text-rendering:auto;enable-background:accumulate"
       d="m 88.954437,69.512858 8.077689,0.02115 C 112.13964,94.778476 121.77586,127.28125 124.4893,162.14925 h -5.69101 C 115.86908,126.56678 105.30624,93.784856 88.954437,69.518955 Z"
       id="ellipse920"
       inkscape:connector-curvature="0" />
    <path
       style="fill:url(#linearGradient1090);fill-opacity:1;stroke:#000000;stroke-width:0.0400405;stroke-linecap:butt;stroke-linejoin:miter;stroke-miterlimit:4;stroke-dasharray:none;stroke-opacity:1"
       d="m 335.68359,262.42969 c -0.006,-0.009 -0.0273,0.008 -0.0273,0.008 l -27.10742,46.94922 9.36523,-0.19922 9.10156,-0.16016 8.11329,-0.12109 6.78515,-0.11914 6.04102,-0.0801 5.46289,-0.0801 4.55469,-0.041 5.58593,-0.0625 -3.08789,-5.58008 -4.83789,-8.55274 -4.12695,-7.0332 -6.42383,-10.49023 -5.28515,-8.24414 -3.11133,-4.69922 c 0,0 -0.72146,-1.05601 -1.00196,-1.49414 z"
       transform="scale(0.26458333)"
       id="path1007"
       inkscape:connector-curvature="0"
       sodipodi:nodetypes="sccccccccccccccccs" />
    <path
       style="fill:#004d99;fill-opacity:1;stroke:#000000;stroke-width:0.0400405;stroke-linecap:butt;stroke-linejoin:miter;stroke-miterlimit:4;stroke-dasharray:none;stroke-opacity:1"
       d="m 335.6582,262.42969 -0.01,0.006 -0.002,0.002 -39.41992,47.22852 12.32227,-0.2793 27.11133,-46.95703 z"
       transform="scale(0.26458333)"
       id="path1011"
       inkscape:connector-curvature="0" />
    <text
       xml:space="preserve"
       id="text857"
       style="font-size:22.5778px;line-height:1.25;font-family:Sen;-inkscape-font-specification:'Sen, Normal';letter-spacing:0px;word-spacing:0px;white-space:pre;shape-inside:url(#rect859);" />
    <text
       id="text973"
       y="249.63602"
       x="-54.86245"
       style="font-size:32.0433px;line-height:1.25;font-family:Sen;-inkscape-font-specification:'Sen, Normal';letter-spacing:0px;word-spacing:0px;fill:#004d99;fill-opacity:1;stroke-width:0.327511"
       xml:space="preserve"><tspan
         style="fill:#004d99;fill-opacity:1;stroke-width:0.327511"
         y="249.63602"
         x="-54.86245"
         id="tspan971"
         sodipodi:role="line">YouTube Downloader</tspan></text>
  </g>
  <style
     id="style3"
     type="text/css">
	.st0{fill:#FF0000;}
	.st1{fill:#FFFFFF;}
	.st2{fill:#282828;}
</style>
  <style
     id="style3-7"
     type="text/css">
	.st0{fill:#FF0000;}
	.st1{fill:#FFFFFF;}
	.st2{fill:#282828;}
</style>
</svg>
